<svg width="50" height="50" viewBox="0 0 50 50" fill="none" xmlns="http://www.w3.org/2000/svg">
<path d="M35.9375 18.8344C35.9375 19.2488 35.7729 19.6462 35.4799 19.9392C35.1868 20.2322 34.7894 20.3969 34.375 20.3969C33.9606 20.3969 33.5632 20.2322 33.2701 19.9392C32.9771 19.6462 32.8125 19.2488 32.8125 18.8344C32.8125 18.4199 32.9771 18.0225 33.2701 17.7295C33.5632 17.4365 33.9606 17.2719 34.375 17.2719C34.7894 17.2719 35.1868 17.4365 35.4799 17.7295C35.7729 18.0225 35.9375 18.4199 35.9375 18.8344ZM31.25 23.5219C31.6644 23.5219 32.0618 23.3572 32.3549 23.0642C32.6479 22.7712 32.8125 22.3738 32.8125 21.9594C32.8125 21.545 32.6479 21.1475 32.3549 20.8545C32.0618 20.5615 31.6644 20.3969 31.25 20.3969C30.8356 20.3969 30.4382 20.5615 30.1451 20.8545C29.8521 21.1475 29.6875 21.545 29.6875 21.9594C29.6875 22.3738 29.8521 22.7712 30.1451 23.0642C30.4382 23.3572 30.8356 23.5219 31.25 23.5219ZM39.0625 21.9594C39.0625 22.3738 38.8979 22.7712 38.6049 23.0642C38.3118 23.3572 37.9144 23.5219 37.5 23.5219C37.0856 23.5219 36.6882 23.3572 36.3951 23.0642C36.1021 22.7712 35.9375 22.3738 35.9375 21.9594C35.9375 21.545 36.1021 21.1475 36.3951 20.8545C36.6882 20.5615 37.0856 20.3969 37.5 20.3969C37.9144 20.3969 38.3118 20.5615 38.6049 20.8545C38.8979 21.1475 39.0625 21.545 39.0625 21.9594ZM34.375 26.6469C34.7894 26.6469 35.1868 26.4822 35.4799 26.1892C35.7729 25.8962 35.9375 25.4988 35.9375 25.0844C35.9375 24.67 35.7729 24.2725 35.4799 23.9795C35.1868 23.6865 34.7894 23.5219 34.375 23.5219C33.9606 23.5219 33.5632 23.6865 33.2701 23.9795C32.9771 24.2725 32.8125 24.67 32.8125 25.0844C32.8125 25.4988 32.9771 25.8962 33.2701 26.1892C33.5632 26.4822 33.9606 26.6469 34.375 26.6469ZM14.0625 17.2719H17.1875V20.3969H20.3125V23.5219H17.1875V26.6469H14.0625V23.5219H10.9375V20.3969H14.0625V17.2719Z" fill="white"/>
<path d="M9.53436 10.5869C9.48099 10.3885 9.46727 10.1815 9.494 9.97773C9.52073 9.774 9.58738 9.57754 9.69014 9.3996C9.7929 9.22167 9.92974 9.06575 10.0928 8.94077C10.2559 8.81578 10.4421 8.7242 10.6406 8.67126L16.6781 7.05251C16.8857 6.99719 17.1024 6.98527 17.3148 7.01748C17.5271 7.04969 17.7306 7.12535 17.9124 7.23972C18.0942 7.35409 18.2505 7.50472 18.3715 7.68221C18.4925 7.85969 18.5756 8.06021 18.6156 8.27126C20.6625 8.02438 22.8344 7.90563 25 7.90563C27.25 7.90563 29.5094 8.03376 31.625 8.29938C31.6615 8.08514 31.7423 7.88088 31.8623 7.69964C31.9822 7.51841 32.1387 7.36419 32.3216 7.24685C32.5045 7.1295 32.7099 7.05161 32.9247 7.01814C33.1394 6.98468 33.3588 6.99638 33.5687 7.05251L39.6062 8.67126C39.8366 8.73293 40.0498 8.84651 40.2295 9.00331C40.4092 9.16011 40.5506 9.35596 40.6429 9.57586C40.7352 9.79576 40.776 10.0339 40.762 10.272C40.7481 10.51 40.6798 10.7418 40.5625 10.9494C41.0021 11.2327 41.3906 11.5421 41.7281 11.8775C43.0031 13.1525 44.1656 15.1588 45.15 17.415C46.15 19.7056 47.0219 22.3869 47.6656 25.1213C48.3094 27.8556 48.7281 30.6838 48.8031 33.265C48.8781 35.815 48.6187 38.2713 47.7781 40.1713C47.3948 41.0243 46.7517 41.7344 45.9408 42.2002C45.1298 42.666 44.1925 42.8637 43.2625 42.765C41.275 42.5556 39.7781 41.5338 38.5344 40.3494C37.7687 39.6244 36.9844 38.7056 36.225 37.8244C35.8312 37.3619 35.4437 36.9119 35.075 36.5025C32.8 33.99 30.0844 31.7306 25 31.7306C19.9156 31.7306 17.2 33.99 14.925 36.5025C14.5531 36.9119 14.1687 37.3619 13.775 37.8244C13.0156 38.7056 12.2312 39.6213 11.4656 40.3494C10.2219 41.5369 8.72499 42.5556 6.73749 42.765C5.80751 42.8637 4.87014 42.666 4.0592 42.2002C3.24826 41.7344 2.60521 41.0243 2.22186 40.1713C1.37811 38.2713 1.12186 35.8119 1.19374 33.265C1.26874 30.6838 1.69374 27.8588 2.33436 25.1213C2.97811 22.3869 3.85311 19.7056 4.84999 17.415C5.83436 15.1588 6.99686 13.1525 8.26874 11.8775C8.67649 11.4759 9.13075 11.1245 9.62186 10.8306L9.53436 10.5869ZM15.8969 11.8744C13.1562 12.4525 11.3062 13.2588 10.4812 14.0869C9.61874 14.9494 8.64686 16.5338 7.71561 18.665C6.73143 20.9839 5.94935 23.3834 5.37811 25.8369C4.7797 28.3024 4.42487 30.8207 4.31874 33.3556C4.24999 35.715 4.51249 37.6306 5.07811 38.9056C5.19395 39.154 5.38461 39.3598 5.62335 39.4943C5.86209 39.6288 6.13694 39.6852 6.40936 39.6556C7.43124 39.5494 8.31561 39.0338 9.31249 38.0869C9.97499 37.4556 10.5625 36.765 11.2344 35.9806C11.65 35.4931 12.0969 34.9713 12.6094 34.4056C15.1906 31.5525 18.6812 28.6088 25 28.6088C31.3187 28.6088 34.8094 31.5525 37.3906 34.4056C37.9031 34.9713 38.35 35.4931 38.7656 35.9806C39.4344 36.765 40.025 37.4556 40.6875 38.0869C41.6812 39.0338 42.5656 39.5494 43.5906 39.6588C43.8634 39.6881 44.1385 39.6312 44.3773 39.4961C44.6161 39.3611 44.8065 39.1545 44.9219 38.9056C45.4844 37.6306 45.75 35.7181 45.6812 33.3556C45.5751 30.8207 45.2203 28.3024 44.6219 25.8369C44.0506 23.3834 43.2686 20.9839 42.2844 18.665C41.3531 16.5338 40.3781 14.9463 39.5187 14.0869C38.6937 13.2588 36.8437 12.4525 34.1031 11.8744C31.4469 11.315 28.2375 11.0306 25 11.0306C21.7625 11.0306 18.5531 11.315 15.8969 11.8744Z" fill="white"/>
</svg>
