<svg width="50" height="50" viewBox="0 0 50 50" fill="none" xmlns="http://www.w3.org/2000/svg">
<path d="M45.5 21.3117H40.2304L32.3911 13.71C32.1593 13.4844 31.8837 13.3055 31.5803 13.1837C31.2769 13.0618 30.9516 12.9994 30.6232 13H10.55C10.1385 12.9999 9.73325 13.0983 9.37035 13.2865C9.00744 13.4747 8.69805 13.7468 8.46965 14.0788L3.17857 21.774C3.06167 21.9449 2.99953 22.1456 3 22.3507V30.6623C3 31.3053 3.26339 31.9219 3.73224 32.3765C4.20108 32.8312 4.83696 33.0866 5.5 33.0866H8.82143C9.06734 34.2609 9.72436 35.3167 10.6812 36.075C11.638 36.8334 12.8357 37.2476 14.0714 37.2476C15.3072 37.2476 16.5049 36.8334 17.4617 36.075C18.4185 35.3167 19.0755 34.2609 19.3214 33.0866H31.6786C31.9245 34.2609 32.5815 35.3167 33.5383 36.075C34.4951 36.8334 35.6928 37.2476 36.9286 37.2476C38.1643 37.2476 39.3621 36.8334 40.3188 36.075C41.2756 35.3167 41.9327 34.2609 42.1786 33.0866H45.5C46.163 33.0866 46.7989 32.8312 47.2678 32.3765C47.7366 31.9219 48 31.3053 48 30.6623V23.7359C48 23.093 47.7366 22.4764 47.2678 22.0217C46.7989 21.5671 46.163 21.3117 45.5 21.3117ZM10.2536 15.232C10.2861 15.1847 10.3302 15.1459 10.3819 15.119C10.4336 15.0921 10.4913 15.078 10.55 15.0779H30.6232C30.7178 15.0783 30.8083 15.1151 30.875 15.1801L37.2 21.3117H6.07322L10.2536 15.232ZM14.0714 35.1645C13.4357 35.1645 12.8143 34.9817 12.2857 34.6392C11.7571 34.2967 11.3451 33.8099 11.1018 33.2404C10.8585 32.6709 10.7949 32.0442 10.9189 31.4395C11.0429 30.8349 11.3491 30.2796 11.7986 29.8437C12.2481 29.4077 12.8208 29.1109 13.4444 28.9906C14.0679 28.8704 14.7141 28.9321 15.3015 29.168C15.8888 29.4039 16.3908 29.8034 16.744 30.316C17.0972 30.8285 17.2857 31.4312 17.2857 32.0476C17.2857 32.8743 16.9471 33.6671 16.3443 34.2516C15.7415 34.8361 14.9239 35.1645 14.0714 35.1645ZM36.9286 35.1645C36.2928 35.1645 35.6714 34.9817 35.1428 34.6392C34.6142 34.2967 34.2022 33.8099 33.959 33.2404C33.7157 32.6709 33.652 32.0442 33.776 31.4395C33.9001 30.8349 34.2062 30.2796 34.6557 29.8437C35.1053 29.4077 35.678 29.1109 36.3015 28.9906C36.925 28.8704 37.5713 28.9321 38.1586 29.168C38.746 29.4039 39.248 29.8034 39.6012 30.316C39.9543 30.8285 40.1429 31.4312 40.1429 32.0476C40.1429 32.8743 39.8042 33.6671 39.2014 34.2516C38.5986 34.8361 37.7811 35.1645 36.9286 35.1645ZM45.8571 30.6623C45.8571 30.7542 45.8195 30.8423 45.7525 30.9072C45.6856 30.9722 45.5947 31.0087 45.5 31.0087H42.1786C41.9327 29.8343 41.2756 28.7786 40.3188 28.0202C39.3621 27.2619 38.1643 26.8476 36.9286 26.8476C35.6928 26.8476 34.4951 27.2619 33.5383 28.0202C32.5815 28.7786 31.9245 29.8343 31.6786 31.0087H19.3214C19.0755 29.8343 18.4185 28.7786 17.4617 28.0202C16.5049 27.2619 15.3072 26.8476 14.0714 26.8476C12.8357 26.8476 11.638 27.2619 10.6812 28.0202C9.72436 28.7786 9.06734 29.8343 8.82143 31.0087H5.5C5.40528 31.0087 5.31444 30.9722 5.24746 30.9072C5.18049 30.8423 5.14286 30.7542 5.14286 30.6623V23.3896H45.5C45.5947 23.3896 45.6856 23.4261 45.7525 23.491C45.8195 23.556 45.8571 23.6441 45.8571 23.7359V30.6623Z" fill="white"/>
</svg>
