<svg width="60" height="60" viewBox="0 0 60 60" fill="none" xmlns="http://www.w3.org/2000/svg">
<path d="M57.5137 28.5001C57.5756 28.2789 57.6487 28.0632 57.7012 27.8382C57.7124 27.7932 57.7162 27.7482 57.7274 27.7032C58.2631 25.5411 58.261 23.2807 57.7214 21.1195C57.1817 18.9584 56.121 16.9623 54.6318 15.3057C53.2587 13.4593 51.4696 11.9626 49.4097 10.937C47.3498 9.91151 45.0772 9.38602 42.7762 9.40324H42.6787C42.4912 9.40324 42.2812 9.41637 42.0824 9.42199H41.8556C37.8929 9.64063 33.9541 10.1761 30.0768 11.0232L21.6824 9.68262H21.6168C17.6186 8.99187 13.5043 9.65154 9.92245 11.5576C7.90455 12.7738 6.17166 14.4095 4.8412 16.3539L4.76432 16.457L4.71745 16.5226C2.9573 19.1337 2.00017 22.203 1.96419 25.3517C1.9282 28.5004 2.81493 31.5908 4.51495 34.2414C4.47932 34.3051 4.4587 34.3764 4.42495 34.442C4.26244 34.7671 4.12394 35.1036 4.01057 35.4489C3.95057 35.6364 3.90557 35.8351 3.86245 36.0301C3.8287 36.1895 3.79495 36.347 3.77245 36.5064C3.74931 36.705 3.73554 36.9046 3.7312 37.1045C3.7312 37.2657 3.71245 37.4232 3.71995 37.5826C3.73307 37.7926 3.75745 38.0007 3.7912 38.2089C3.8137 38.357 3.82495 38.5051 3.8587 38.6514C3.91495 38.882 3.98995 39.1089 4.0762 39.3301C4.11932 39.4482 4.14745 39.5701 4.19995 39.6864C4.3537 40.0295 4.5412 40.3539 4.76245 40.6576C5.61077 41.8723 6.8625 42.7467 8.29495 43.1251C8.24149 43.9247 8.37458 44.7257 8.68371 45.465C8.99283 46.2043 9.46953 46.8616 10.0762 47.3851C11.1507 48.3265 12.4684 48.9464 13.8787 49.1739C14.1693 50.117 14.6793 50.9776 15.3656 51.6864C16.3018 52.7015 17.5672 53.3525 18.9374 53.5239C19.2637 54.6357 19.8824 55.6407 20.7299 56.4301C21.7743 57.4576 23.1731 58.0426 24.6374 58.0614C25.7144 58.0563 26.7722 57.7762 27.7106 57.2476C29.1056 58.0464 30.7406 58.3164 32.3193 58.0089C33.148 57.8572 33.9331 57.5252 34.6191 57.0362C35.3051 56.5472 35.8751 55.9134 36.2887 55.1795C36.3281 55.1176 36.3506 55.0632 36.3862 55.0014C37.9799 55.3276 39.6393 55.0407 41.0324 54.1989C42.2576 53.5072 43.1902 52.3947 43.6574 51.0676C45.3337 51.0901 46.9574 50.4864 48.2081 49.3707C48.8933 48.7718 49.4255 48.0177 49.7601 47.1713C50.0947 46.3249 50.2222 45.4108 50.1318 44.5051C50.1318 44.4526 50.1187 44.4114 50.1149 44.3607C51.0935 44.0675 51.9738 43.5133 52.6612 42.7576C53.5499 41.8205 54.1221 40.628 54.297 39.3483C54.4719 38.0687 54.2408 36.7664 53.6362 35.6251C55.3219 33.6774 56.5973 31.4097 57.3862 28.9576C57.4312 28.8132 57.4687 28.6557 57.5137 28.5001ZM54.3037 25.3126C54.2102 26.2554 54.0031 27.1833 53.6868 28.0764L53.6268 28.2639C53.0038 29.9319 52.105 31.4835 50.9681 32.8539C45.0862 27.7201 36.5306 20.2276 35.8274 19.5564C35.0153 18.779 33.9366 18.3416 32.8124 18.3339C32.4638 18.3309 32.1167 18.3808 31.7831 18.482C30.5943 18.857 27.6731 19.7945 25.1231 20.7414C24.1481 21.1032 23.0343 20.1789 22.6949 19.3914C22.4699 18.9189 22.4324 18.3789 22.5862 17.8801C22.8918 17.327 23.4056 16.9164 24.0131 16.7401C29.7809 14.7125 35.8072 13.5131 41.9118 13.1776H42.1387C42.3468 13.1776 42.5531 13.1626 42.7443 13.1589C44.1447 13.1358 45.5351 13.3994 46.8299 13.9332C48.7502 14.8085 50.4361 16.1256 51.7499 17.777C52.9227 19.1043 53.7429 20.7053 54.1349 22.4326L54.1518 22.5189C54.242 22.9804 54.2991 23.4479 54.3224 23.9176C54.3281 24.0695 54.3374 24.2607 54.3374 24.4295C54.3374 24.7014 54.3374 24.9714 54.3056 25.2395L54.3037 25.3126ZM7.51307 37.7982C7.49995 37.7176 7.49995 37.6295 7.49995 37.5451C7.47927 37.3645 7.47927 37.182 7.49995 37.0014C7.52064 36.8949 7.54756 36.7897 7.58057 36.6864C7.61807 36.5195 7.67432 36.3564 7.74182 36.2007C7.8037 36.0882 7.87495 35.9795 7.9537 35.8782C8.06529 35.6954 8.20087 35.5283 8.35682 35.3814L8.36807 35.372L11.8949 32.3814C12.1293 32.2009 12.3969 32.0684 12.6824 31.9915C12.968 31.9146 13.266 31.8947 13.5592 31.933C13.8525 31.9713 14.1353 32.0671 14.3915 32.2148C14.6478 32.3625 14.8723 32.5593 15.0524 32.7939C15.1836 32.9859 15.2687 33.2055 15.3012 33.4357C15.3338 33.6659 15.3128 33.9006 15.2399 34.1214L9.7087 39.5101C9.32687 39.517 8.94978 39.4247 8.61426 39.2423C8.27873 39.0599 7.99623 38.7936 7.79432 38.4695C7.65499 38.2677 7.55921 38.0391 7.51307 37.7982ZM12.2306 42.2889L18.2999 36.3751L18.2718 36.347C18.6133 36.1769 18.9991 36.1167 19.3762 36.1745C19.8581 36.3057 20.2931 36.5757 20.6249 36.9507C20.9549 37.232 21.1762 37.6182 21.2512 38.0457C21.2791 38.4788 21.1842 38.911 20.9774 39.2926C20.9583 39.3448 20.942 39.398 20.9287 39.452L14.7956 45.4276C14.3652 45.4464 13.9359 45.3724 13.5367 45.2106C13.1375 45.0489 12.7777 44.8031 12.4818 44.4901C12.2383 44.1834 12.0857 43.8145 12.0413 43.4254C11.9969 43.0363 12.0625 42.6426 12.2306 42.2889ZM17.4524 48.0732L23.7899 41.9064C24.1931 41.987 24.5624 42.1932 24.8437 42.4951C25.2324 42.8354 25.5029 43.2904 25.6162 43.7945C25.6458 44.0113 25.6363 44.2317 25.5881 44.4451L20.1074 49.7795C19.7418 49.8474 19.3649 49.821 19.0122 49.7029C18.6596 49.5848 18.3428 49.3789 18.0918 49.1045C17.799 48.8171 17.5797 48.4633 17.4524 48.0732ZM23.3343 53.7207C22.9952 53.4213 22.7274 53.0497 22.5506 52.6332L27.7274 47.5951C28.0968 47.717 28.4343 47.9176 28.7174 48.182C28.9818 48.3931 29.1813 48.6745 29.2931 48.9939C29.3567 49.2303 29.3567 49.4793 29.2931 49.7157C29.0589 50.4721 28.6686 51.1709 28.1474 51.767L26.7299 53.417H26.7412C26.6943 53.447 26.6418 53.4601 26.5987 53.4939C26.0701 53.9764 25.3898 54.2595 24.6749 54.2945C24.1702 54.286 23.6889 54.08 23.3343 53.7207ZM31.7231 54.2964C31.4456 54.3395 31.1662 54.3526 30.8868 54.3339L31.0256 54.1726L31.0706 54.1182L31.0724 54.1201C31.6407 53.4177 32.1218 52.649 32.5049 51.8307L33.3337 52.7082C33.2658 52.8849 33.1843 53.0561 33.0899 53.2201C32.9563 53.4897 32.7643 53.7262 32.5279 53.9124C32.2914 54.0985 32.0165 54.2297 31.7231 54.2964ZM43.7231 47.312L40.3874 43.6164C40.101 43.2812 39.7056 43.0579 39.2707 42.9856C38.8358 42.9133 38.3894 42.9967 38.0099 43.2211C37.6305 43.4456 37.3423 43.7967 37.1963 44.2126C37.0502 44.6286 37.0554 45.0827 37.2112 45.4951C37.298 45.729 37.4306 45.9431 37.6012 46.1251L40.2937 49.1251C40.2749 49.3164 40.2356 49.5057 40.1756 49.6876C40.0194 50.2187 39.6631 50.6685 39.1818 50.942C38.5956 51.3265 37.8842 51.4715 37.1943 51.347L34.9443 48.9582C34.7014 48.7028 34.391 48.5215 34.0491 48.4355C33.7072 48.3496 33.3479 48.3624 33.0131 48.4726C32.984 48.2905 32.9446 48.1102 32.8949 47.9326C32.5854 46.9529 32.0096 46.0784 31.2318 45.407C30.6869 44.9098 30.0627 44.5074 29.3849 44.2164C29.398 43.8675 29.376 43.5183 29.3193 43.1739C29.0776 41.897 28.436 40.7302 27.4874 39.842C26.7979 39.1438 25.9454 38.6283 25.0068 38.342C25.0162 38.0907 25.0068 37.8414 24.9787 37.592C24.8035 36.3292 24.1998 35.1648 23.2687 34.2939C22.4208 33.4063 21.3317 32.7864 20.1356 32.5107C19.7287 32.4322 19.3137 32.4039 18.8999 32.4264C18.7528 31.7299 18.4552 31.074 18.0281 30.5045C17.5467 29.8794 16.9468 29.3553 16.2626 28.9624C15.5785 28.5694 14.8236 28.3152 14.0411 28.2144C13.2585 28.1135 12.4638 28.168 11.7024 28.3747C10.941 28.5814 10.2278 28.9362 9.6037 29.4189L9.53807 29.4714L7.22245 31.4214C6.13666 29.4441 5.61713 27.2057 5.721 24.9523C5.82487 22.699 6.54811 20.5179 7.8112 18.6489L7.85057 18.5926C8.8772 17.0619 10.2238 15.7722 11.7974 14.8126C14.668 13.3176 17.955 12.8221 21.1387 13.4045L22.0087 13.5432C20.7233 14.1224 19.6966 15.1552 19.1249 16.4439C18.8486 17.1509 18.7171 17.9063 18.7384 18.6652C18.7597 19.424 18.9332 20.1709 19.2487 20.8614C19.8103 22.2198 20.8578 23.3205 22.1869 23.9486C23.5159 24.5767 25.0313 24.6873 26.4374 24.2589C28.9124 23.342 31.7512 22.4214 32.8124 22.0857C32.8968 22.083 32.9808 22.0992 33.058 22.1333C33.1353 22.1674 33.2039 22.2184 33.2587 22.2826C34.1756 23.1451 45.2437 32.8332 49.8674 36.8626L50.2424 37.1832C50.5336 37.6549 50.6581 38.2105 50.5959 38.7613C50.5336 39.312 50.2884 39.826 49.8993 40.2207C49.6321 40.5087 49.2812 40.7055 48.8962 40.7832L45.6468 37.4889C45.2932 37.1522 44.8226 36.9662 44.3343 36.9699C43.8461 36.9737 43.3784 37.167 43.03 37.5091C42.6816 37.8512 42.4797 38.3152 42.467 38.8033C42.4543 39.2914 42.6317 39.7654 42.9618 40.1251L46.0668 43.2714C46.0799 43.3276 46.0949 43.3839 46.1118 43.4382L46.1343 43.4964C46.2751 43.8966 46.3603 44.3142 46.3874 44.7376C46.4395 45.0591 46.4119 45.3884 46.3069 45.6967C46.202 46.005 46.023 46.2828 45.7856 46.5057C45.2249 47.0307 44.4843 47.3195 43.7174 47.312H43.7231Z" fill="#F65026"/>
</svg>
