<svg width="200" height="46" viewBox="0 0 200 46" fill="none" xmlns="http://www.w3.org/2000/svg">
<path d="M14.4933 38C14.1022 38 13.7794 37.8711 13.5249 37.6133C13.2694 37.3544 13.1416 37.0344 13.1416 36.6533V11.8133C13.1416 11.4322 13.2705 11.1128 13.5283 10.855C13.786 10.5972 14.1055 10.4683 14.4866 10.4683H17.1799V8H22.8199V10.4667H25.5199C25.9022 10.4667 26.221 10.5961 26.4766 10.855C26.7322 11.1128 26.8599 11.4328 26.8599 11.815V16.2367H25.1933V12.1033H14.8083V36.3333H25.1916V33.0967H26.8583V36.6533C26.8583 37.0344 26.7294 37.3544 26.4716 37.6133C26.2138 37.8722 25.8944 38.0011 25.5133 38H14.4933ZM17.7566 30.5V26.5267C17.7566 25.7856 18.0199 25.1517 18.5466 24.625C19.0744 24.0972 19.7083 23.8333 20.4483 23.8333H28.3049L24.8466 20.3333L26.0266 19.1867L31.5066 24.6667L26.0266 30.1467L24.8366 28.9583L28.3366 25.5H20.4483C20.1494 25.5 19.9038 25.5961 19.7116 25.7883C19.5194 25.9806 19.4233 26.2267 19.4233 26.5267V30.5H17.7566Z" fill="#F65026"/>
<path d="M53.278 18V5.4H57.688C58.672 5.4 59.488 5.568 60.136 5.904C60.784 6.228 61.264 6.678 61.576 7.254C61.9 7.818 62.062 8.46 62.062 9.18C62.062 9.864 61.906 10.494 61.594 11.07C61.294 11.634 60.82 12.084 60.172 12.42C59.524 12.756 58.696 12.924 57.688 12.924H55.186V18H53.278ZM55.186 11.358H57.598C58.498 11.358 59.14 11.166 59.524 10.782C59.92 10.386 60.118 9.852 60.118 9.18C60.118 8.484 59.92 7.944 59.524 7.56C59.14 7.164 58.498 6.966 57.598 6.966H55.186V11.358ZM67.5597 18.216C66.7077 18.216 65.9397 18.024 65.2557 17.64C64.5837 17.244 64.0497 16.698 63.6537 16.002C63.2577 15.294 63.0597 14.472 63.0597 13.536C63.0597 12.6 63.2577 11.784 63.6537 11.088C64.0617 10.38 64.6077 9.834 65.2917 9.45C65.9757 9.054 66.7377 8.856 67.5777 8.856C68.4297 8.856 69.1917 9.054 69.8637 9.45C70.5477 9.834 71.0877 10.38 71.4837 11.088C71.8917 11.784 72.0957 12.6 72.0957 13.536C72.0957 14.472 71.8917 15.294 71.4837 16.002C71.0877 16.698 70.5477 17.244 69.8637 17.64C69.1797 18.024 68.4117 18.216 67.5597 18.216ZM67.5597 16.578C68.0157 16.578 68.4357 16.464 68.8197 16.236C69.2157 16.008 69.5337 15.672 69.7737 15.228C70.0137 14.772 70.1337 14.208 70.1337 13.536C70.1337 12.864 70.0137 12.306 69.7737 11.862C69.5457 11.406 69.2337 11.064 68.8377 10.836C68.4537 10.608 68.0337 10.494 67.5777 10.494C67.1217 10.494 66.6957 10.608 66.2997 10.836C65.9157 11.064 65.6037 11.406 65.3637 11.862C65.1237 12.306 65.0037 12.864 65.0037 13.536C65.0037 14.208 65.1237 14.772 65.3637 15.228C65.6037 15.672 65.9157 16.008 66.2997 16.236C66.6837 16.464 67.1037 16.578 67.5597 16.578ZM74.1591 18V9.072H75.8691L76.0311 10.764C76.3431 10.176 76.7751 9.714 77.3271 9.378C77.8911 9.03 78.5691 8.856 79.3611 8.856V10.854H78.8391C78.3111 10.854 77.8371 10.944 77.4171 11.124C77.0091 11.292 76.6791 11.586 76.4271 12.006C76.1871 12.414 76.0671 12.984 76.0671 13.716V18H74.1591ZM84.741 18C83.865 18 83.169 17.79 82.653 17.37C82.137 16.938 81.879 16.176 81.879 15.084V10.674H80.349V9.072H81.879L82.113 6.804H83.787V9.072H86.307V10.674H83.787V15.084C83.787 15.576 83.889 15.918 84.093 16.11C84.309 16.29 84.675 16.38 85.191 16.38H86.217V18H84.741ZM91.2984 18.216C90.5424 18.216 89.9184 18.09 89.4264 17.838C88.9344 17.586 88.5684 17.256 88.3284 16.848C88.0884 16.428 87.9684 15.972 87.9684 15.48C87.9684 14.616 88.3044 13.932 88.9764 13.428C89.6484 12.924 90.6084 12.672 91.8564 12.672H94.1964V12.51C94.1964 11.814 94.0044 11.292 93.6204 10.944C93.2484 10.596 92.7624 10.422 92.1624 10.422C91.6344 10.422 91.1724 10.554 90.7764 10.818C90.3924 11.07 90.1584 11.448 90.0744 11.952H88.1664C88.2264 11.304 88.4424 10.752 88.8144 10.296C89.1984 9.828 89.6784 9.474 90.2544 9.234C90.8424 8.982 91.4844 8.856 92.1804 8.856C93.4284 8.856 94.3944 9.186 95.0784 9.846C95.7624 10.494 96.1044 11.382 96.1044 12.51V18H94.4484L94.2864 16.47C94.0344 16.962 93.6684 17.376 93.1884 17.712C92.7084 18.048 92.0784 18.216 91.2984 18.216ZM91.6764 16.668C92.1924 16.668 92.6244 16.548 92.9724 16.308C93.3324 16.056 93.6084 15.726 93.8004 15.318C94.0044 14.91 94.1304 14.46 94.1784 13.968H92.0544C91.2984 13.968 90.7584 14.1 90.4344 14.364C90.1224 14.628 89.9664 14.958 89.9664 15.354C89.9664 15.762 90.1164 16.086 90.4164 16.326C90.7284 16.554 91.1484 16.668 91.6764 16.668ZM103.351 18.216C102.655 18.216 102.037 18.078 101.497 17.802C100.969 17.526 100.549 17.136 100.237 16.632L100.039 18H98.329V5.04H100.237V10.458C100.525 10.038 100.921 9.666 101.425 9.342C101.929 9.018 102.577 8.856 103.369 8.856C104.233 8.856 104.995 9.06 105.655 9.468C106.315 9.876 106.831 10.434 107.203 11.142C107.587 11.85 107.779 12.654 107.779 13.554C107.779 14.454 107.587 15.258 107.203 15.966C106.831 16.662 106.315 17.214 105.655 17.622C104.995 18.018 104.227 18.216 103.351 18.216ZM103.027 16.56C103.843 16.56 104.515 16.284 105.043 15.732C105.571 15.168 105.835 14.436 105.835 13.536C105.835 12.948 105.715 12.426 105.475 11.97C105.235 11.514 104.905 11.16 104.485 10.908C104.065 10.644 103.579 10.512 103.027 10.512C102.211 10.512 101.539 10.794 101.011 11.358C100.495 11.922 100.237 12.648 100.237 13.536C100.237 14.436 100.495 15.168 101.011 15.732C101.539 16.284 102.211 16.56 103.027 16.56ZM109.843 18V5.04H111.751V18H109.843ZM118.343 18.216C117.467 18.216 116.687 18.024 116.003 17.64C115.331 17.244 114.803 16.698 114.419 16.002C114.035 15.306 113.843 14.496 113.843 13.572C113.843 12.636 114.029 11.814 114.401 11.106C114.785 10.398 115.313 9.846 115.985 9.45C116.669 9.054 117.461 8.856 118.361 8.856C119.237 8.856 119.999 9.054 120.647 9.45C121.295 9.834 121.799 10.35 122.159 10.998C122.519 11.646 122.699 12.36 122.699 13.14C122.699 13.26 122.693 13.392 122.681 13.536C122.681 13.668 122.675 13.818 122.663 13.986H115.715C115.775 14.85 116.057 15.51 116.561 15.966C117.077 16.41 117.671 16.632 118.343 16.632C118.883 16.632 119.333 16.512 119.693 16.272C120.065 16.02 120.341 15.684 120.521 15.264H122.429C122.189 16.104 121.709 16.806 120.989 17.37C120.281 17.934 119.399 18.216 118.343 18.216ZM118.343 10.422C117.707 10.422 117.143 10.614 116.651 10.998C116.159 11.37 115.859 11.934 115.751 12.69H120.791C120.755 11.994 120.509 11.442 120.053 11.034C119.597 10.626 119.027 10.422 118.343 10.422ZM129.286 18V5.4H137.296V6.948H131.194V10.872H136.756V12.384H131.194V16.452H137.296V18H129.286ZM139.497 18V9.072H141.189L141.333 10.638C141.609 10.086 142.011 9.654 142.539 9.342C143.079 9.018 143.697 8.856 144.393 8.856C145.473 8.856 146.319 9.192 146.931 9.864C147.555 10.536 147.867 11.538 147.867 12.87V18H145.977V13.068C145.977 11.34 145.269 10.476 143.853 10.476C143.145 10.476 142.557 10.728 142.089 11.232C141.633 11.736 141.405 12.456 141.405 13.392V18H139.497ZM154.29 18.216C153.414 18.216 152.634 18.024 151.95 17.64C151.278 17.244 150.75 16.698 150.366 16.002C149.982 15.306 149.79 14.496 149.79 13.572C149.79 12.636 149.976 11.814 150.348 11.106C150.732 10.398 151.26 9.846 151.932 9.45C152.616 9.054 153.408 8.856 154.308 8.856C155.184 8.856 155.946 9.054 156.594 9.45C157.242 9.834 157.746 10.35 158.106 10.998C158.466 11.646 158.646 12.36 158.646 13.14C158.646 13.26 158.64 13.392 158.628 13.536C158.628 13.668 158.622 13.818 158.61 13.986H151.662C151.722 14.85 152.004 15.51 152.508 15.966C153.024 16.41 153.618 16.632 154.29 16.632C154.83 16.632 155.28 16.512 155.64 16.272C156.012 16.02 156.288 15.684 156.468 15.264H158.376C158.136 16.104 157.656 16.806 156.936 17.37C156.228 17.934 155.346 18.216 154.29 18.216ZM154.29 10.422C153.654 10.422 153.09 10.614 152.598 10.998C152.106 11.37 151.806 11.934 151.698 12.69H156.738C156.702 11.994 156.456 11.442 156 11.034C155.544 10.626 154.974 10.422 154.29 10.422ZM160.626 18V9.072H162.336L162.498 10.764C162.81 10.176 163.242 9.714 163.794 9.378C164.358 9.03 165.036 8.856 165.828 8.856V10.854H165.306C164.778 10.854 164.304 10.944 163.884 11.124C163.476 11.292 163.146 11.586 162.894 12.006C162.654 12.414 162.534 12.984 162.534 13.716V18H160.626ZM170.907 15.264C170.439 15.264 170.007 15.21 169.611 15.102L168.837 15.858C168.969 15.942 169.131 16.014 169.323 16.074C169.515 16.134 169.785 16.188 170.133 16.236C170.481 16.284 170.955 16.332 171.555 16.38C172.743 16.488 173.601 16.776 174.129 17.244C174.657 17.7 174.921 18.312 174.921 19.08C174.921 19.608 174.777 20.106 174.489 20.574C174.213 21.054 173.775 21.438 173.175 21.726C172.587 22.026 171.831 22.176 170.907 22.176C169.659 22.176 168.645 21.936 167.865 21.456C167.097 20.988 166.713 20.274 166.713 19.314C166.713 18.942 166.809 18.57 167.001 18.198C167.205 17.838 167.523 17.496 167.955 17.172C167.703 17.064 167.481 16.95 167.289 16.83C167.109 16.698 166.947 16.566 166.803 16.434V16.002L168.351 14.418C167.655 13.818 167.307 13.032 167.307 12.06C167.307 11.472 167.445 10.938 167.721 10.458C168.009 9.966 168.423 9.576 168.963 9.288C169.503 9 170.151 8.856 170.907 8.856C171.411 8.856 171.879 8.928 172.311 9.072H175.641V10.332L174.057 10.422C174.345 10.914 174.489 11.46 174.489 12.06C174.489 12.66 174.345 13.2 174.057 13.68C173.781 14.16 173.373 14.544 172.833 14.832C172.305 15.12 171.663 15.264 170.907 15.264ZM170.907 13.77C171.459 13.77 171.903 13.626 172.239 13.338C172.587 13.038 172.761 12.618 172.761 12.078C172.761 11.526 172.587 11.106 172.239 10.818C171.903 10.53 171.459 10.386 170.907 10.386C170.343 10.386 169.887 10.53 169.539 10.818C169.203 11.106 169.035 11.526 169.035 12.078C169.035 12.618 169.203 13.038 169.539 13.338C169.887 13.626 170.343 13.77 170.907 13.77ZM168.513 19.134C168.513 19.65 168.741 20.034 169.197 20.286C169.653 20.55 170.223 20.682 170.907 20.682C171.567 20.682 172.101 20.538 172.509 20.25C172.917 19.974 173.121 19.602 173.121 19.134C173.121 18.786 172.983 18.486 172.707 18.234C172.431 17.994 171.909 17.844 171.141 17.784C170.565 17.748 170.055 17.694 169.611 17.622C169.191 17.85 168.903 18.096 168.747 18.36C168.591 18.624 168.513 18.882 168.513 19.134ZM178.387 21.96L180.529 17.262H180.007L176.479 9.072H178.549L181.285 15.678L184.147 9.072H186.163L180.403 21.96H178.387ZM53.278 41V28.4H57.688C58.672 28.4 59.488 28.568 60.136 28.904C60.784 29.228 61.264 29.678 61.576 30.254C61.9 30.818 62.062 31.46 62.062 32.18C62.062 32.864 61.906 33.494 61.594 34.07C61.294 34.634 60.82 35.084 60.172 35.42C59.524 35.756 58.696 35.924 57.688 35.924H55.186V41H53.278ZM55.186 34.358H57.598C58.498 34.358 59.14 34.166 59.524 33.782C59.92 33.386 60.118 32.852 60.118 32.18C60.118 31.484 59.92 30.944 59.524 30.56C59.14 30.164 58.498 29.966 57.598 29.966H55.186V34.358ZM63.8759 41V32.072H65.5859L65.7479 33.764C66.0599 33.176 66.4919 32.714 67.0439 32.378C67.6079 32.03 68.2859 31.856 69.0779 31.856V33.854H68.5559C68.0279 33.854 67.5539 33.944 67.1339 34.124C66.7259 34.292 66.3959 34.586 66.1439 35.006C65.9039 35.414 65.7839 35.984 65.7839 36.716V41H63.8759ZM74.6437 41.216C73.7917 41.216 73.0237 41.024 72.3397 40.64C71.6677 40.244 71.1337 39.698 70.7377 39.002C70.3417 38.294 70.1437 37.472 70.1437 36.536C70.1437 35.6 70.3417 34.784 70.7377 34.088C71.1457 33.38 71.6917 32.834 72.3757 32.45C73.0597 32.054 73.8217 31.856 74.6617 31.856C75.5137 31.856 76.2757 32.054 76.9477 32.45C77.6317 32.834 78.1717 33.38 78.5677 34.088C78.9757 34.784 79.1797 35.6 79.1797 36.536C79.1797 37.472 78.9757 38.294 78.5677 39.002C78.1717 39.698 77.6317 40.244 76.9477 40.64C76.2637 41.024 75.4957 41.216 74.6437 41.216ZM74.6437 39.578C75.0997 39.578 75.5197 39.464 75.9037 39.236C76.2997 39.008 76.6177 38.672 76.8577 38.228C77.0977 37.772 77.2177 37.208 77.2177 36.536C77.2177 35.864 77.0977 35.306 76.8577 34.862C76.6297 34.406 76.3177 34.064 75.9217 33.836C75.5377 33.608 75.1177 33.494 74.6617 33.494C74.2057 33.494 73.7797 33.608 73.3837 33.836C72.9997 34.064 72.6877 34.406 72.4477 34.862C72.2077 35.306 72.0877 35.864 72.0877 36.536C72.0877 37.208 72.2077 37.772 72.4477 38.228C72.6877 38.672 72.9997 39.008 73.3837 39.236C73.7677 39.464 74.1877 39.578 74.6437 39.578ZM85.3111 41.216C84.4471 41.216 83.6851 41.012 83.0251 40.604C82.3651 40.196 81.8491 39.638 81.4771 38.93C81.1051 38.222 80.9191 37.418 80.9191 36.518C80.9191 35.618 81.1051 34.82 81.4771 34.124C81.8491 33.416 82.3651 32.864 83.0251 32.468C83.6971 32.06 84.4651 31.856 85.3291 31.856C86.0371 31.856 86.6551 31.994 87.1831 32.27C87.7231 32.546 88.1431 32.936 88.4431 33.44V28.04H90.3511V41H88.6411L88.4431 39.614C88.1551 40.034 87.7591 40.406 87.2551 40.73C86.7511 41.054 86.1031 41.216 85.3111 41.216ZM85.6531 39.56C86.4691 39.56 87.1351 39.278 87.6511 38.714C88.1791 38.15 88.4431 37.424 88.4431 36.536C88.4431 35.636 88.1791 34.91 87.6511 34.358C87.1351 33.794 86.4691 33.512 85.6531 33.512C84.8371 33.512 84.1651 33.794 83.6371 34.358C83.1091 34.91 82.8451 35.636 82.8451 36.536C82.8451 37.124 82.9651 37.646 83.2051 38.102C83.4451 38.558 83.7751 38.918 84.1951 39.182C84.6271 39.434 85.1131 39.56 85.6531 39.56ZM96.0508 41.216C94.9708 41.216 94.1188 40.88 93.4948 40.208C92.8828 39.536 92.5768 38.534 92.5768 37.202V32.072H94.4848V37.004C94.4848 38.732 95.1928 39.596 96.6088 39.596C97.3168 39.596 97.8988 39.344 98.3548 38.84C98.8108 38.336 99.0388 37.616 99.0388 36.68V32.072H100.947V41H99.2548L99.1108 39.434C98.8348 39.986 98.4268 40.424 97.8868 40.748C97.3588 41.06 96.7468 41.216 96.0508 41.216ZM107.604 41.216C106.728 41.216 105.942 41.018 105.246 40.622C104.562 40.226 104.022 39.68 103.626 38.984C103.242 38.276 103.05 37.46 103.05 36.536C103.05 35.612 103.242 34.802 103.626 34.106C104.022 33.398 104.562 32.846 105.246 32.45C105.942 32.054 106.728 31.856 107.604 31.856C108.708 31.856 109.632 32.144 110.376 32.72C111.132 33.296 111.618 34.076 111.834 35.06H109.836C109.716 34.568 109.452 34.184 109.044 33.908C108.636 33.632 108.156 33.494 107.604 33.494C107.136 33.494 106.704 33.614 106.308 33.854C105.912 34.082 105.594 34.424 105.354 34.88C105.114 35.324 104.994 35.876 104.994 36.536C104.994 37.196 105.114 37.754 105.354 38.21C105.594 38.654 105.912 38.996 106.308 39.236C106.704 39.476 107.136 39.596 107.604 39.596C108.156 39.596 108.636 39.458 109.044 39.182C109.452 38.906 109.716 38.516 109.836 38.012H111.834C111.63 38.972 111.15 39.746 110.394 40.334C109.638 40.922 108.708 41.216 107.604 41.216ZM117.471 41C116.595 41 115.899 40.79 115.383 40.37C114.867 39.938 114.609 39.176 114.609 38.084V33.674H113.079V32.072H114.609L114.843 29.804H116.517V32.072H119.037V33.674H116.517V38.084C116.517 38.576 116.619 38.918 116.823 39.11C117.039 39.29 117.405 39.38 117.921 39.38H118.947V41H117.471ZM124.569 41.216C123.441 41.216 122.511 40.94 121.779 40.388C121.047 39.836 120.627 39.104 120.519 38.192H122.445C122.541 38.6 122.769 38.954 123.129 39.254C123.489 39.542 123.963 39.686 124.551 39.686C125.127 39.686 125.547 39.566 125.811 39.326C126.075 39.086 126.207 38.81 126.207 38.498C126.207 38.042 126.021 37.736 125.649 37.58C125.289 37.412 124.785 37.262 124.137 37.13C123.633 37.022 123.129 36.878 122.625 36.698C122.133 36.518 121.719 36.266 121.383 35.942C121.059 35.606 120.897 35.156 120.897 34.592C120.897 33.812 121.197 33.164 121.797 32.648C122.397 32.12 123.237 31.856 124.317 31.856C125.313 31.856 126.117 32.096 126.729 32.576C127.353 33.056 127.719 33.734 127.827 34.61H125.991C125.931 34.226 125.751 33.926 125.451 33.71C125.163 33.494 124.773 33.386 124.281 33.386C123.801 33.386 123.429 33.488 123.165 33.692C122.901 33.884 122.769 34.136 122.769 34.448C122.769 34.76 122.949 35.006 123.309 35.186C123.681 35.366 124.167 35.528 124.767 35.672C125.367 35.804 125.919 35.96 126.423 36.14C126.939 36.308 127.353 36.56 127.665 36.896C127.977 37.232 128.133 37.724 128.133 38.372C128.145 39.188 127.827 39.866 127.179 40.406C126.543 40.946 125.673 41.216 124.569 41.216Z" fill="#F65026"/>
</svg>
