<svg width="200" height="46" viewBox="0 0 200 46" fill="none" xmlns="http://www.w3.org/2000/svg">
<path fill-rule="evenodd" clip-rule="evenodd" d="M23.75 16.75V23.7575L29.58 19.87L33.75 17.09V34.25C33.75 34.5815 33.6183 34.8995 33.3839 35.1339C33.1495 35.3683 32.8315 35.5 32.5 35.5H7.5C7.16848 35.5 6.85054 35.3683 6.61612 35.1339C6.3817 34.8995 6.25 34.5815 6.25 34.25V10.5C6.25 10.1685 6.3817 9.85054 6.61612 9.61612C6.85054 9.3817 7.16848 9.25 7.5 9.25H11.25C11.5815 9.25 11.8995 9.3817 12.1339 9.61612C12.3683 9.85054 12.5 10.1685 12.5 10.5V24.115L18.455 19.7825L23.75 15.9325V16.75ZM16.25 10.5V16.75L20 14.025L22.2575 12.3825C22.7497 12.0241 23.3315 11.8089 23.9384 11.7606C24.5454 11.7123 25.1539 11.8329 25.6965 12.1091C26.2392 12.3852 26.6949 12.806 27.0132 13.3251C27.3315 13.8441 27.5 14.4411 27.5 15.05V16.75L30.05 15.05L31.2075 14.2775L32.28 13.565C32.7856 13.2279 33.3731 13.0344 33.98 13.005C34.587 12.9756 35.1905 13.1114 35.7262 13.3981C36.262 13.6847 36.71 14.1113 37.0224 14.6325C37.3347 15.1537 37.4998 15.7499 37.5 16.3575V34.25C37.5 35.5761 36.9732 36.8479 36.0355 37.7855C35.0979 38.7232 33.8261 39.25 32.5 39.25H7.5C6.17392 39.25 4.90215 38.7232 3.96447 37.7855C3.02678 36.8479 2.5 35.5761 2.5 34.25V10.5C2.5 9.17392 3.02678 7.90215 3.96447 6.96447C4.90215 6.02678 6.17392 5.5 7.5 5.5H11.25C12.5761 5.5 13.8479 6.02678 14.7855 6.96447C15.7232 7.90215 16.25 9.17392 16.25 10.5ZM11.875 28C11.3777 28 10.9008 28.1975 10.5492 28.5492C10.1975 28.9008 10 29.3777 10 29.875C10 30.3723 10.1975 30.8492 10.5492 31.2008C10.9008 31.5525 11.3777 31.75 11.875 31.75H28.125C28.6223 31.75 29.0992 31.5525 29.4508 31.2008C29.8025 30.8492 30 30.3723 30 29.875C30 29.3777 29.8025 28.9008 29.4508 28.5492C29.0992 28.1975 28.6223 28 28.125 28H11.875Z" fill="#F65026"/>
<path d="M53.278 18V5.4H55.186V18H53.278ZM57.6708 18V9.072H59.3628L59.5068 10.638C59.7828 10.086 60.1848 9.654 60.7128 9.342C61.2528 9.018 61.8708 8.856 62.5668 8.856C63.6468 8.856 64.4928 9.192 65.1048 9.864C65.7288 10.536 66.0408 11.538 66.0408 12.87V18H64.1508V13.068C64.1508 11.34 63.4428 10.476 62.0268 10.476C61.3188 10.476 60.7308 10.728 60.2628 11.232C59.8068 11.736 59.5788 12.456 59.5788 13.392V18H57.6708ZM72.356 18.216C71.492 18.216 70.73 18.012 70.07 17.604C69.41 17.196 68.894 16.638 68.522 15.93C68.15 15.222 67.964 14.418 67.964 13.518C67.964 12.618 68.15 11.82 68.522 11.124C68.894 10.416 69.41 9.864 70.07 9.468C70.742 9.06 71.51 8.856 72.374 8.856C73.082 8.856 73.7 8.994 74.228 9.27C74.768 9.546 75.188 9.936 75.488 10.44V5.04H77.396V18H75.686L75.488 16.614C75.2 17.034 74.804 17.406 74.3 17.73C73.796 18.054 73.148 18.216 72.356 18.216ZM72.698 16.56C73.514 16.56 74.18 16.278 74.696 15.714C75.224 15.15 75.488 14.424 75.488 13.536C75.488 12.636 75.224 11.91 74.696 11.358C74.18 10.794 73.514 10.512 72.698 10.512C71.882 10.512 71.21 10.794 70.682 11.358C70.154 11.91 69.89 12.636 69.89 13.536C69.89 14.124 70.01 14.646 70.25 15.102C70.49 15.558 70.82 15.918 71.24 16.182C71.672 16.434 72.158 16.56 72.698 16.56ZM83.0957 18.216C82.0157 18.216 81.1637 17.88 80.5397 17.208C79.9277 16.536 79.6217 15.534 79.6217 14.202V9.072H81.5297V14.004C81.5297 15.732 82.2377 16.596 83.6537 16.596C84.3617 16.596 84.9437 16.344 85.3997 15.84C85.8557 15.336 86.0837 14.616 86.0837 13.68V9.072H87.9917V18H86.2997L86.1557 16.434C85.8797 16.986 85.4717 17.424 84.9317 17.748C84.4037 18.06 83.7917 18.216 83.0957 18.216ZM93.9829 18.216C92.8549 18.216 91.9249 17.94 91.1929 17.388C90.4609 16.836 90.0409 16.104 89.9329 15.192H91.8589C91.9549 15.6 92.1829 15.954 92.5429 16.254C92.9029 16.542 93.3769 16.686 93.9649 16.686C94.5409 16.686 94.9609 16.566 95.2249 16.326C95.4889 16.086 95.6209 15.81 95.6209 15.498C95.6209 15.042 95.4349 14.736 95.0629 14.58C94.7029 14.412 94.1989 14.262 93.5509 14.13C93.0469 14.022 92.5429 13.878 92.0389 13.698C91.5469 13.518 91.1329 13.266 90.7969 12.942C90.4729 12.606 90.3109 12.156 90.3109 11.592C90.3109 10.812 90.6109 10.164 91.2109 9.648C91.8109 9.12 92.6509 8.856 93.7309 8.856C94.7269 8.856 95.5309 9.096 96.1429 9.576C96.7669 10.056 97.1329 10.734 97.2409 11.61H95.4049C95.3449 11.226 95.1649 10.926 94.8649 10.71C94.5769 10.494 94.1869 10.386 93.6949 10.386C93.2149 10.386 92.8429 10.488 92.5789 10.692C92.3149 10.884 92.1829 11.136 92.1829 11.448C92.1829 11.76 92.3629 12.006 92.7229 12.186C93.0949 12.366 93.5809 12.528 94.1809 12.672C94.7809 12.804 95.3329 12.96 95.8369 13.14C96.3529 13.308 96.7669 13.56 97.0789 13.896C97.3909 14.232 97.5469 14.724 97.5469 15.372C97.5589 16.188 97.2409 16.866 96.5929 17.406C95.9569 17.946 95.0869 18.216 93.9829 18.216ZM103.04 18C102.164 18 101.468 17.79 100.952 17.37C100.436 16.938 100.178 16.176 100.178 15.084V10.674H98.6478V9.072H100.178L100.412 6.804H102.086V9.072H104.606V10.674H102.086V15.084C102.086 15.576 102.188 15.918 102.392 16.11C102.608 16.29 102.974 16.38 103.49 16.38H104.516V18H103.04ZM106.573 18V9.072H108.283L108.445 10.764C108.757 10.176 109.189 9.714 109.741 9.378C110.305 9.03 110.983 8.856 111.775 8.856V10.854H111.253C110.725 10.854 110.251 10.944 109.831 11.124C109.423 11.292 109.093 11.586 108.841 12.006C108.601 12.414 108.481 12.984 108.481 13.716V18H106.573ZM114.491 7.38C114.131 7.38 113.831 7.272 113.591 7.056C113.363 6.828 113.249 6.546 113.249 6.21C113.249 5.874 113.363 5.598 113.591 5.382C113.831 5.154 114.131 5.04 114.491 5.04C114.851 5.04 115.145 5.154 115.373 5.382C115.613 5.598 115.733 5.874 115.733 6.21C115.733 6.546 115.613 6.828 115.373 7.056C115.145 7.272 114.851 7.38 114.491 7.38ZM113.537 18V9.072H115.445V18H113.537ZM120.988 18.216C120.232 18.216 119.608 18.09 119.116 17.838C118.624 17.586 118.258 17.256 118.018 16.848C117.778 16.428 117.658 15.972 117.658 15.48C117.658 14.616 117.994 13.932 118.666 13.428C119.338 12.924 120.298 12.672 121.546 12.672H123.886V12.51C123.886 11.814 123.694 11.292 123.31 10.944C122.938 10.596 122.452 10.422 121.852 10.422C121.324 10.422 120.862 10.554 120.466 10.818C120.082 11.07 119.848 11.448 119.764 11.952H117.856C117.916 11.304 118.132 10.752 118.504 10.296C118.888 9.828 119.368 9.474 119.944 9.234C120.532 8.982 121.174 8.856 121.87 8.856C123.118 8.856 124.084 9.186 124.768 9.846C125.452 10.494 125.794 11.382 125.794 12.51V18H124.138L123.976 16.47C123.724 16.962 123.358 17.376 122.878 17.712C122.398 18.048 121.768 18.216 120.988 18.216ZM121.366 16.668C121.882 16.668 122.314 16.548 122.662 16.308C123.022 16.056 123.298 15.726 123.49 15.318C123.694 14.91 123.82 14.46 123.868 13.968H121.744C120.988 13.968 120.448 14.1 120.124 14.364C119.812 14.628 119.656 14.958 119.656 15.354C119.656 15.762 119.806 16.086 120.106 16.326C120.418 16.554 120.838 16.668 121.366 16.668ZM128.019 18V5.04H129.927V18H128.019ZM57.436 41.216C56.512 41.216 55.702 41.054 55.006 40.73C54.31 40.406 53.764 39.944 53.368 39.344C52.984 38.744 52.786 38.03 52.774 37.202H54.79C54.802 37.874 55.036 38.444 55.492 38.912C55.948 39.38 56.59 39.614 57.418 39.614C58.15 39.614 58.72 39.44 59.128 39.092C59.548 38.732 59.758 38.276 59.758 37.724C59.758 37.28 59.656 36.92 59.452 36.644C59.26 36.368 58.99 36.14 58.642 35.96C58.306 35.78 57.916 35.618 57.472 35.474C57.028 35.33 56.56 35.174 56.068 35.006C55.096 34.682 54.364 34.262 53.872 33.746C53.392 33.23 53.152 32.552 53.152 31.712C53.14 31.004 53.302 30.386 53.638 29.858C53.986 29.33 54.466 28.922 55.078 28.634C55.702 28.334 56.428 28.184 57.256 28.184C58.072 28.184 58.786 28.334 59.398 28.634C60.022 28.934 60.508 29.354 60.856 29.894C61.204 30.422 61.384 31.04 61.396 31.748H59.38C59.38 31.424 59.296 31.118 59.128 30.83C58.96 30.53 58.714 30.284 58.39 30.092C58.066 29.9 57.67 29.804 57.202 29.804C56.602 29.792 56.104 29.942 55.708 30.254C55.324 30.566 55.132 30.998 55.132 31.55C55.132 32.042 55.276 32.42 55.564 32.684C55.852 32.948 56.248 33.17 56.752 33.35C57.256 33.518 57.832 33.716 58.48 33.944C59.104 34.148 59.662 34.394 60.154 34.682C60.646 34.97 61.036 35.348 61.324 35.816C61.624 36.284 61.774 36.878 61.774 37.598C61.774 38.234 61.612 38.828 61.288 39.38C60.964 39.92 60.478 40.364 59.83 40.712C59.182 41.048 58.384 41.216 57.436 41.216ZM67.964 41.216C67.112 41.216 66.344 41.024 65.66 40.64C64.988 40.244 64.454 39.698 64.058 39.002C63.662 38.294 63.464 37.472 63.464 36.536C63.464 35.6 63.662 34.784 64.058 34.088C64.466 33.38 65.012 32.834 65.696 32.45C66.38 32.054 67.142 31.856 67.982 31.856C68.834 31.856 69.596 32.054 70.268 32.45C70.952 32.834 71.492 33.38 71.888 34.088C72.296 34.784 72.5 35.6 72.5 36.536C72.5 37.472 72.296 38.294 71.888 39.002C71.492 39.698 70.952 40.244 70.268 40.64C69.584 41.024 68.816 41.216 67.964 41.216ZM67.964 39.578C68.42 39.578 68.84 39.464 69.224 39.236C69.62 39.008 69.938 38.672 70.178 38.228C70.418 37.772 70.538 37.208 70.538 36.536C70.538 35.864 70.418 35.306 70.178 34.862C69.95 34.406 69.638 34.064 69.242 33.836C68.858 33.608 68.438 33.494 67.982 33.494C67.526 33.494 67.1 33.608 66.704 33.836C66.32 34.064 66.008 34.406 65.768 34.862C65.528 35.306 65.408 35.864 65.408 36.536C65.408 37.208 65.528 37.772 65.768 38.228C66.008 38.672 66.32 39.008 66.704 39.236C67.088 39.464 67.508 39.578 67.964 39.578ZM74.5634 41V28.04H76.4714V41H74.5634ZM82.1816 41.216C81.1016 41.216 80.2496 40.88 79.6256 40.208C79.0136 39.536 78.7076 38.534 78.7076 37.202V32.072H80.6156V37.004C80.6156 38.732 81.3236 39.596 82.7396 39.596C83.4476 39.596 84.0296 39.344 84.4856 38.84C84.9416 38.336 85.1696 37.616 85.1696 36.68V32.072H87.0776V41H85.3856L85.2416 39.434C84.9656 39.986 84.5576 40.424 84.0176 40.748C83.4896 41.06 82.8776 41.216 82.1816 41.216ZM93.2488 41C92.3728 41 91.6768 40.79 91.1608 40.37C90.6448 39.938 90.3868 39.176 90.3868 38.084V33.674H88.8568V32.072H90.3868L90.6208 29.804H92.2948V32.072H94.8148V33.674H92.2948V38.084C92.2948 38.576 92.3968 38.918 92.6008 39.11C92.8168 39.29 93.1828 39.38 93.6988 39.38H94.7248V41H93.2488ZM97.8622 30.38C97.5022 30.38 97.2022 30.272 96.9622 30.056C96.7342 29.828 96.6202 29.546 96.6202 29.21C96.6202 28.874 96.7342 28.598 96.9622 28.382C97.2022 28.154 97.5022 28.04 97.8622 28.04C98.2222 28.04 98.5162 28.154 98.7442 28.382C98.9842 28.598 99.1042 28.874 99.1042 29.21C99.1042 29.546 98.9842 29.828 98.7442 30.056C98.5162 30.272 98.2222 30.38 97.8622 30.38ZM96.9082 41V32.072H98.8162V41H96.9082ZM105.511 41.216C104.659 41.216 103.891 41.024 103.207 40.64C102.535 40.244 102.001 39.698 101.605 39.002C101.209 38.294 101.011 37.472 101.011 36.536C101.011 35.6 101.209 34.784 101.605 34.088C102.013 33.38 102.559 32.834 103.243 32.45C103.927 32.054 104.689 31.856 105.529 31.856C106.381 31.856 107.143 32.054 107.815 32.45C108.499 32.834 109.039 33.38 109.435 34.088C109.843 34.784 110.047 35.6 110.047 36.536C110.047 37.472 109.843 38.294 109.435 39.002C109.039 39.698 108.499 40.244 107.815 40.64C107.131 41.024 106.363 41.216 105.511 41.216ZM105.511 39.578C105.967 39.578 106.387 39.464 106.771 39.236C107.167 39.008 107.485 38.672 107.725 38.228C107.965 37.772 108.085 37.208 108.085 36.536C108.085 35.864 107.965 35.306 107.725 34.862C107.497 34.406 107.185 34.064 106.789 33.836C106.405 33.608 105.985 33.494 105.529 33.494C105.073 33.494 104.647 33.608 104.251 33.836C103.867 34.064 103.555 34.406 103.315 34.862C103.075 35.306 102.955 35.864 102.955 36.536C102.955 37.208 103.075 37.772 103.315 38.228C103.555 38.672 103.867 39.008 104.251 39.236C104.635 39.464 105.055 39.578 105.511 39.578ZM112.11 41V32.072H113.802L113.946 33.638C114.222 33.086 114.624 32.654 115.152 32.342C115.692 32.018 116.31 31.856 117.006 31.856C118.086 31.856 118.932 32.192 119.544 32.864C120.168 33.536 120.48 34.538 120.48 35.87V41H118.59V36.068C118.59 34.34 117.882 33.476 116.466 33.476C115.758 33.476 115.17 33.728 114.702 34.232C114.246 34.736 114.018 35.456 114.018 36.392V41H112.11ZM126.291 41.216C125.163 41.216 124.233 40.94 123.501 40.388C122.769 39.836 122.349 39.104 122.241 38.192H124.167C124.263 38.6 124.491 38.954 124.851 39.254C125.211 39.542 125.685 39.686 126.273 39.686C126.849 39.686 127.269 39.566 127.533 39.326C127.797 39.086 127.929 38.81 127.929 38.498C127.929 38.042 127.743 37.736 127.371 37.58C127.011 37.412 126.507 37.262 125.859 37.13C125.355 37.022 124.851 36.878 124.347 36.698C123.855 36.518 123.441 36.266 123.105 35.942C122.781 35.606 122.619 35.156 122.619 34.592C122.619 33.812 122.919 33.164 123.519 32.648C124.119 32.12 124.959 31.856 126.039 31.856C127.035 31.856 127.839 32.096 128.451 32.576C129.075 33.056 129.441 33.734 129.549 34.61H127.713C127.653 34.226 127.473 33.926 127.173 33.71C126.885 33.494 126.495 33.386 126.003 33.386C125.523 33.386 125.151 33.488 124.887 33.692C124.623 33.884 124.491 34.136 124.491 34.448C124.491 34.76 124.671 35.006 125.031 35.186C125.403 35.366 125.889 35.528 126.489 35.672C127.089 35.804 127.641 35.96 128.145 36.14C128.661 36.308 129.075 36.56 129.387 36.896C129.699 37.232 129.855 37.724 129.855 38.372C129.867 39.188 129.549 39.866 128.901 40.406C128.265 40.946 127.395 41.216 126.291 41.216Z" fill="#F65026"/>
</svg>
