<svg width="200" height="46" viewBox="0 0 200 46" fill="none" xmlns="http://www.w3.org/2000/svg">
<path d="M20.0084 9.67188C30.1334 9.67188 38.3417 14.1485 38.3417 19.6719V26.3385C38.3417 31.8619 30.1334 36.3385 20.0084 36.3385C10.0634 36.3385 1.96838 32.0202 1.68338 26.6335L1.67505 26.3385V19.6719C1.67505 14.1485 9.88338 9.67188 20.0084 9.67188ZM20.0084 29.6719C13.8084 29.6719 8.32505 27.9919 5.00838 25.4219V26.3385C5.00838 29.4752 11.48 33.0052 20.0084 33.0052C28.3584 33.0052 34.7384 29.6219 35.0001 26.5352L35.0084 26.3385L35.0101 25.4219C31.6934 27.9919 26.2101 29.6719 20.0084 29.6719ZM20.0084 13.0052C11.48 13.0052 5.00838 16.5352 5.00838 19.6719C5.00838 22.8085 11.48 26.3385 20.0084 26.3385C28.5367 26.3385 35.0084 22.8085 35.0084 19.6719C35.0084 16.5352 28.5367 13.0052 20.0084 13.0052Z" fill="#F65026"/>
<path d="M58.894 18.216C57.646 18.216 56.566 17.946 55.654 17.406C54.754 16.854 54.058 16.092 53.566 15.12C53.074 14.136 52.828 13.002 52.828 11.718C52.828 10.422 53.074 9.288 53.566 8.316C54.058 7.332 54.754 6.564 55.654 6.012C56.566 5.46 57.646 5.184 58.894 5.184C60.37 5.184 61.576 5.544 62.512 6.264C63.448 6.984 64.042 7.992 64.294 9.288H62.17C62.002 8.556 61.642 7.974 61.09 7.542C60.538 7.11 59.8 6.894 58.876 6.894C57.616 6.894 56.62 7.326 55.888 8.19C55.156 9.042 54.79 10.218 54.79 11.718C54.79 13.206 55.156 14.376 55.888 15.228C56.62 16.08 57.616 16.506 58.876 16.506C59.8 16.506 60.538 16.302 61.09 15.894C61.642 15.486 62.002 14.928 62.17 14.22H64.294C64.042 15.468 63.448 16.446 62.512 17.154C61.576 17.862 60.37 18.216 58.894 18.216ZM70.4953 18.216C69.6193 18.216 68.8393 18.024 68.1553 17.64C67.4833 17.244 66.9553 16.698 66.5713 16.002C66.1873 15.306 65.9953 14.496 65.9953 13.572C65.9953 12.636 66.1813 11.814 66.5533 11.106C66.9373 10.398 67.4653 9.846 68.1373 9.45C68.8213 9.054 69.6133 8.856 70.5133 8.856C71.3893 8.856 72.1513 9.054 72.7993 9.45C73.4473 9.834 73.9513 10.35 74.3113 10.998C74.6713 11.646 74.8513 12.36 74.8513 13.14C74.8513 13.26 74.8453 13.392 74.8333 13.536C74.8333 13.668 74.8273 13.818 74.8153 13.986H67.8673C67.9273 14.85 68.2093 15.51 68.7133 15.966C69.2293 16.41 69.8233 16.632 70.4953 16.632C71.0353 16.632 71.4853 16.512 71.8453 16.272C72.2173 16.02 72.4933 15.684 72.6733 15.264H74.5813C74.3413 16.104 73.8613 16.806 73.1413 17.37C72.4333 17.934 71.5513 18.216 70.4953 18.216ZM70.4953 10.422C69.8593 10.422 69.2953 10.614 68.8033 10.998C68.3113 11.37 68.0113 11.934 67.9033 12.69H72.9433C72.9073 11.994 72.6613 11.442 72.2053 11.034C71.7493 10.626 71.1793 10.422 70.4953 10.422ZM76.831 18V5.04H78.739V18H76.831ZM81.1552 18V5.04H83.0632V18H81.1552ZM56.23 41V29.948H52.504V28.4H61.846V29.948H58.138V41H56.23ZM66.1183 41.216C65.2423 41.216 64.4623 41.024 63.7783 40.64C63.1063 40.244 62.5783 39.698 62.1943 39.002C61.8103 38.306 61.6183 37.496 61.6183 36.572C61.6183 35.636 61.8043 34.814 62.1763 34.106C62.5603 33.398 63.0883 32.846 63.7603 32.45C64.4443 32.054 65.2363 31.856 66.1363 31.856C67.0123 31.856 67.7743 32.054 68.4223 32.45C69.0703 32.834 69.5743 33.35 69.9343 33.998C70.2943 34.646 70.4743 35.36 70.4743 36.14C70.4743 36.26 70.4683 36.392 70.4563 36.536C70.4563 36.668 70.4503 36.818 70.4383 36.986H63.4903C63.5503 37.85 63.8323 38.51 64.3363 38.966C64.8523 39.41 65.4463 39.632 66.1183 39.632C66.6583 39.632 67.1083 39.512 67.4683 39.272C67.8403 39.02 68.1163 38.684 68.2963 38.264H70.2043C69.9643 39.104 69.4843 39.806 68.7643 40.37C68.0563 40.934 67.1743 41.216 66.1183 41.216ZM66.1183 33.422C65.4823 33.422 64.9183 33.614 64.4263 33.998C63.9343 34.37 63.6343 34.934 63.5263 35.69H68.5663C68.5303 34.994 68.2843 34.442 67.8283 34.034C67.3723 33.626 66.8023 33.422 66.1183 33.422ZM76.684 41.216C75.808 41.216 75.022 41.018 74.326 40.622C73.642 40.226 73.102 39.68 72.706 38.984C72.322 38.276 72.13 37.46 72.13 36.536C72.13 35.612 72.322 34.802 72.706 34.106C73.102 33.398 73.642 32.846 74.326 32.45C75.022 32.054 75.808 31.856 76.684 31.856C77.788 31.856 78.712 32.144 79.456 32.72C80.212 33.296 80.698 34.076 80.914 35.06H78.916C78.796 34.568 78.532 34.184 78.124 33.908C77.716 33.632 77.236 33.494 76.684 33.494C76.216 33.494 75.784 33.614 75.388 33.854C74.992 34.082 74.674 34.424 74.434 34.88C74.194 35.324 74.074 35.876 74.074 36.536C74.074 37.196 74.194 37.754 74.434 38.21C74.674 38.654 74.992 38.996 75.388 39.236C75.784 39.476 76.216 39.596 76.684 39.596C77.236 39.596 77.716 39.458 78.124 39.182C78.532 38.906 78.796 38.516 78.916 38.012H80.914C80.71 38.972 80.23 39.746 79.474 40.334C78.718 40.922 77.788 41.216 76.684 41.216ZM82.9833 41V28.04H84.8913V33.512C85.1913 32.996 85.6053 32.594 86.1333 32.306C86.6733 32.006 87.2673 31.856 87.9153 31.856C88.9833 31.856 89.8233 32.192 90.4353 32.864C91.0473 33.536 91.3533 34.538 91.3533 35.87V41H89.4633V36.068C89.4633 34.34 88.7733 33.476 87.3933 33.476C86.6733 33.476 86.0733 33.728 85.5933 34.232C85.1253 34.736 84.8913 35.456 84.8913 36.392V41H82.9833ZM93.6005 41V32.072H95.2925L95.4365 33.638C95.7125 33.086 96.1145 32.654 96.6425 32.342C97.1825 32.018 97.8005 31.856 98.4965 31.856C99.5765 31.856 100.423 32.192 101.035 32.864C101.659 33.536 101.971 34.538 101.971 35.87V41H100.081V36.068C100.081 34.34 99.3725 33.476 97.9565 33.476C97.2485 33.476 96.6605 33.728 96.1925 34.232C95.7365 34.736 95.5085 35.456 95.5085 36.392V41H93.6005ZM108.394 41.216C107.542 41.216 106.774 41.024 106.09 40.64C105.418 40.244 104.884 39.698 104.488 39.002C104.092 38.294 103.894 37.472 103.894 36.536C103.894 35.6 104.092 34.784 104.488 34.088C104.896 33.38 105.442 32.834 106.126 32.45C106.81 32.054 107.572 31.856 108.412 31.856C109.264 31.856 110.026 32.054 110.698 32.45C111.382 32.834 111.922 33.38 112.318 34.088C112.726 34.784 112.93 35.6 112.93 36.536C112.93 37.472 112.726 38.294 112.318 39.002C111.922 39.698 111.382 40.244 110.698 40.64C110.014 41.024 109.246 41.216 108.394 41.216ZM108.394 39.578C108.85 39.578 109.27 39.464 109.654 39.236C110.05 39.008 110.368 38.672 110.608 38.228C110.848 37.772 110.968 37.208 110.968 36.536C110.968 35.864 110.848 35.306 110.608 34.862C110.38 34.406 110.068 34.064 109.672 33.836C109.288 33.608 108.868 33.494 108.412 33.494C107.956 33.494 107.53 33.608 107.134 33.836C106.75 34.064 106.438 34.406 106.198 34.862C105.958 35.306 105.838 35.864 105.838 36.536C105.838 37.208 105.958 37.772 106.198 38.228C106.438 38.672 106.75 39.008 107.134 39.236C107.518 39.464 107.938 39.578 108.394 39.578ZM114.993 41V28.04H116.901V41H114.993ZM123.493 41.216C122.641 41.216 121.873 41.024 121.189 40.64C120.517 40.244 119.983 39.698 119.587 39.002C119.191 38.294 118.993 37.472 118.993 36.536C118.993 35.6 119.191 34.784 119.587 34.088C119.995 33.38 120.541 32.834 121.225 32.45C121.909 32.054 122.671 31.856 123.511 31.856C124.363 31.856 125.125 32.054 125.797 32.45C126.481 32.834 127.021 33.38 127.417 34.088C127.825 34.784 128.029 35.6 128.029 36.536C128.029 37.472 127.825 38.294 127.417 39.002C127.021 39.698 126.481 40.244 125.797 40.64C125.113 41.024 124.345 41.216 123.493 41.216ZM123.493 39.578C123.949 39.578 124.369 39.464 124.753 39.236C125.149 39.008 125.467 38.672 125.707 38.228C125.947 37.772 126.067 37.208 126.067 36.536C126.067 35.864 125.947 35.306 125.707 34.862C125.479 34.406 125.167 34.064 124.771 33.836C124.387 33.608 123.967 33.494 123.511 33.494C123.055 33.494 122.629 33.608 122.233 33.836C121.849 34.064 121.537 34.406 121.297 34.862C121.057 35.306 120.937 35.864 120.937 36.536C120.937 37.208 121.057 37.772 121.297 38.228C121.537 38.672 121.849 39.008 122.233 39.236C122.617 39.464 123.037 39.578 123.493 39.578ZM133.272 38.264C132.804 38.264 132.372 38.21 131.976 38.102L131.202 38.858C131.334 38.942 131.496 39.014 131.688 39.074C131.88 39.134 132.15 39.188 132.498 39.236C132.846 39.284 133.32 39.332 133.92 39.38C135.108 39.488 135.966 39.776 136.494 40.244C137.022 40.7 137.286 41.312 137.286 42.08C137.286 42.608 137.142 43.106 136.854 43.574C136.578 44.054 136.14 44.438 135.54 44.726C134.952 45.026 134.196 45.176 133.272 45.176C132.024 45.176 131.01 44.936 130.23 44.456C129.462 43.988 129.078 43.274 129.078 42.314C129.078 41.942 129.174 41.57 129.366 41.198C129.57 40.838 129.888 40.496 130.32 40.172C130.068 40.064 129.846 39.95 129.654 39.83C129.474 39.698 129.312 39.566 129.168 39.434V39.002L130.716 37.418C130.02 36.818 129.672 36.032 129.672 35.06C129.672 34.472 129.81 33.938 130.086 33.458C130.374 32.966 130.788 32.576 131.328 32.288C131.868 32 132.516 31.856 133.272 31.856C133.776 31.856 134.244 31.928 134.676 32.072H138.006V33.332L136.422 33.422C136.71 33.914 136.854 34.46 136.854 35.06C136.854 35.66 136.71 36.2 136.422 36.68C136.146 37.16 135.738 37.544 135.198 37.832C134.67 38.12 134.028 38.264 133.272 38.264ZM133.272 36.77C133.824 36.77 134.268 36.626 134.604 36.338C134.952 36.038 135.126 35.618 135.126 35.078C135.126 34.526 134.952 34.106 134.604 33.818C134.268 33.53 133.824 33.386 133.272 33.386C132.708 33.386 132.252 33.53 131.904 33.818C131.568 34.106 131.4 34.526 131.4 35.078C131.4 35.618 131.568 36.038 131.904 36.338C132.252 36.626 132.708 36.77 133.272 36.77ZM130.878 42.134C130.878 42.65 131.106 43.034 131.562 43.286C132.018 43.55 132.588 43.682 133.272 43.682C133.932 43.682 134.466 43.538 134.874 43.25C135.282 42.974 135.486 42.602 135.486 42.134C135.486 41.786 135.348 41.486 135.072 41.234C134.796 40.994 134.274 40.844 133.506 40.784C132.93 40.748 132.42 40.694 131.976 40.622C131.556 40.85 131.268 41.096 131.112 41.36C130.956 41.624 130.878 41.882 130.878 42.134ZM140.788 30.38C140.428 30.38 140.128 30.272 139.888 30.056C139.66 29.828 139.546 29.546 139.546 29.21C139.546 28.874 139.66 28.598 139.888 28.382C140.128 28.154 140.428 28.04 140.788 28.04C141.148 28.04 141.442 28.154 141.67 28.382C141.91 28.598 142.03 28.874 142.03 29.21C142.03 29.546 141.91 29.828 141.67 30.056C141.442 30.272 141.148 30.38 140.788 30.38ZM139.834 41V32.072H141.742V41H139.834ZM148.437 41.216C147.561 41.216 146.781 41.024 146.097 40.64C145.425 40.244 144.897 39.698 144.513 39.002C144.129 38.306 143.937 37.496 143.937 36.572C143.937 35.636 144.123 34.814 144.495 34.106C144.879 33.398 145.407 32.846 146.079 32.45C146.763 32.054 147.555 31.856 148.455 31.856C149.331 31.856 150.093 32.054 150.741 32.45C151.389 32.834 151.893 33.35 152.253 33.998C152.613 34.646 152.793 35.36 152.793 36.14C152.793 36.26 152.787 36.392 152.775 36.536C152.775 36.668 152.769 36.818 152.757 36.986H145.809C145.869 37.85 146.151 38.51 146.655 38.966C147.171 39.41 147.765 39.632 148.437 39.632C148.977 39.632 149.427 39.512 149.787 39.272C150.159 39.02 150.435 38.684 150.615 38.264H152.523C152.283 39.104 151.803 39.806 151.083 40.37C150.375 40.934 149.493 41.216 148.437 41.216ZM148.437 33.422C147.801 33.422 147.237 33.614 146.745 33.998C146.253 34.37 145.953 34.934 145.845 35.69H150.885C150.849 34.994 150.603 34.442 150.147 34.034C149.691 33.626 149.121 33.422 148.437 33.422ZM158.336 41.216C157.208 41.216 156.278 40.94 155.546 40.388C154.814 39.836 154.394 39.104 154.286 38.192H156.212C156.308 38.6 156.536 38.954 156.896 39.254C157.256 39.542 157.73 39.686 158.318 39.686C158.894 39.686 159.314 39.566 159.578 39.326C159.842 39.086 159.974 38.81 159.974 38.498C159.974 38.042 159.788 37.736 159.416 37.58C159.056 37.412 158.552 37.262 157.904 37.13C157.4 37.022 156.896 36.878 156.392 36.698C155.9 36.518 155.486 36.266 155.15 35.942C154.826 35.606 154.664 35.156 154.664 34.592C154.664 33.812 154.964 33.164 155.564 32.648C156.164 32.12 157.004 31.856 158.084 31.856C159.08 31.856 159.884 32.096 160.496 32.576C161.12 33.056 161.486 33.734 161.594 34.61H159.758C159.698 34.226 159.518 33.926 159.218 33.71C158.93 33.494 158.54 33.386 158.048 33.386C157.568 33.386 157.196 33.488 156.932 33.692C156.668 33.884 156.536 34.136 156.536 34.448C156.536 34.76 156.716 35.006 157.076 35.186C157.448 35.366 157.934 35.528 158.534 35.672C159.134 35.804 159.686 35.96 160.19 36.14C160.706 36.308 161.12 36.56 161.432 36.896C161.744 37.232 161.9 37.724 161.9 38.372C161.912 39.188 161.594 39.866 160.946 40.406C160.31 40.946 159.44 41.216 158.336 41.216Z" fill="#F65026"/>
</svg>
