<svg width="35" height="35" viewBox="0 0 35 35" fill="none" xmlns="http://www.w3.org/2000/svg">
<path d="M28.802 14.5833C28.802 14.2933 28.6868 14.0151 28.4817 13.8099C28.2766 13.6048 27.9984 13.4896 27.7083 13.4896C27.4182 13.4896 27.14 13.6048 26.9349 13.8099C26.7298 14.0151 26.6145 14.2933 26.6145 14.5833H28.802ZM8.38536 14.5833C8.38536 14.2933 8.27012 14.0151 8.065 13.8099C7.85989 13.6048 7.58169 13.4896 7.29161 13.4896C7.00153 13.4896 6.72333 13.6048 6.51821 13.8099C6.31309 14.0151 6.19786 14.2933 6.19786 14.5833H8.38536ZM29.852 18.2729C29.9522 18.3804 30.0729 18.4666 30.2071 18.5264C30.3412 18.5861 30.4861 18.6183 30.6329 18.6209C30.7798 18.6235 30.9257 18.5965 31.0619 18.5414C31.198 18.4864 31.3218 18.4046 31.4256 18.3007C31.5295 18.1968 31.6114 18.0731 31.6664 17.9369C31.7214 17.8007 31.7484 17.6549 31.7458 17.508C31.7432 17.3611 31.7111 17.2163 31.6513 17.0821C31.5915 16.948 31.5053 16.8272 31.3979 16.7271L29.852 18.2729ZM17.4999 4.37501L18.2729 3.6021C18.0678 3.39727 17.7898 3.28223 17.4999 3.28223C17.2101 3.28223 16.9321 3.39727 16.727 3.6021L17.4999 4.37501ZM3.60202 16.7271C3.49456 16.8272 3.40837 16.948 3.34859 17.0821C3.28881 17.2163 3.25667 17.3611 3.25408 17.508C3.25149 17.6549 3.2785 17.8007 3.33351 17.9369C3.38852 18.0731 3.4704 18.1968 3.57426 18.3007C3.67812 18.4046 3.80184 18.4864 3.93803 18.5414C4.07422 18.5965 4.22009 18.6235 4.36695 18.6209C4.51381 18.6183 4.65864 18.5861 4.79281 18.5264C4.92697 18.4666 5.04772 18.3804 5.14786 18.2729L3.60202 16.7271ZM10.2083 31.7188H24.7916V29.5313H10.2083V31.7188ZM28.802 27.7083V14.5833H26.6145V27.7083H28.802ZM8.38536 27.7083V14.5833H6.19786V27.7083H8.38536ZM31.3979 16.7271L18.2729 3.6021L16.727 5.14793L29.852 18.2729L31.3979 16.7271ZM16.727 3.6021L3.60202 16.7271L5.14786 18.2729L18.2729 5.14793L16.727 3.6021ZM24.7916 31.7188C25.8552 31.7188 26.8753 31.2962 27.6274 30.5441C28.3795 29.792 28.802 28.772 28.802 27.7083H26.6145C26.6145 28.7146 25.7979 29.5313 24.7916 29.5313V31.7188ZM10.2083 29.5313C9.20202 29.5313 8.38536 28.7146 8.38536 27.7083H6.19786C6.19786 28.772 6.62038 29.792 7.37248 30.5441C8.12458 31.2962 9.14464 31.7188 10.2083 31.7188V29.5313Z" fill="white"/>
</svg>
