<svg width="50" height="50" viewBox="0 0 50 50" fill="none" xmlns="http://www.w3.org/2000/svg">
<g clip-path="url(#clip0_2285_313)">
<path d="M25 28.5156C26.9416 28.5156 28.5156 26.9416 28.5156 25C28.5156 23.0584 26.9416 21.4844 25 21.4844C23.0584 21.4844 21.4844 23.0584 21.4844 25C21.4844 26.9416 23.0584 28.5156 25 28.5156Z" fill="white"/>
<path d="M18.5781 33.3759C18.2745 33.3762 17.9742 33.3121 17.6971 33.1879C17.4201 33.0637 17.1725 32.8821 16.9707 32.6552C15.0965 30.546 14.0613 27.8225 14.0613 25.0009C14.0613 22.1794 15.0965 19.4558 16.9707 17.3466C17.1566 17.1302 17.3837 16.953 17.6388 16.8253C17.8939 16.6976 18.1719 16.622 18.4565 16.6029C18.7412 16.5837 19.0268 16.6215 19.2966 16.7139C19.5665 16.8064 19.8153 16.9516 20.0285 17.1412C20.2416 17.3308 20.4149 17.561 20.5381 17.8183C20.6614 18.0756 20.7321 18.3548 20.7463 18.6398C20.7605 18.9247 20.7177 19.2096 20.6206 19.4778C20.5235 19.7461 20.3739 19.9923 20.1807 20.2021C19.0058 21.5247 18.3569 23.2323 18.3569 25.0014C18.3569 26.7705 19.0058 28.4781 20.1807 29.8007C20.4556 30.1102 20.6352 30.4926 20.698 30.9017C20.7607 31.3109 20.704 31.7295 20.5345 32.1072C20.365 32.4848 20.09 32.8055 19.7426 33.0306C19.3952 33.2557 18.9901 33.3756 18.5762 33.3759H18.5781ZM31.4219 33.3759C31.0079 33.3756 30.6029 33.2557 30.2555 33.0306C29.908 32.8055 29.6331 32.4848 29.4636 32.1072C29.2941 31.7295 29.2373 31.3109 29.3001 30.9017C29.3628 30.4926 29.5425 30.1102 29.8174 29.8007C30.9923 28.4781 31.6412 26.7705 31.6412 25.0014C31.6412 23.2323 30.9923 21.5247 29.8174 20.2021C29.6241 19.9923 29.4745 19.7461 29.3774 19.4778C29.2803 19.2096 29.2376 18.9247 29.2517 18.6398C29.2659 18.3548 29.3367 18.0756 29.4599 17.8183C29.5832 17.561 29.7564 17.3308 29.9696 17.1412C30.1827 16.9516 30.4315 16.8064 30.7014 16.7139C30.9713 16.6215 31.2569 16.5837 31.5415 16.6029C31.8262 16.622 32.1041 16.6976 32.3592 16.8253C32.6143 16.953 32.8415 17.1302 33.0273 17.3466C34.9015 19.4558 35.9368 22.1794 35.9368 25.0009C35.9368 27.8225 34.9015 30.546 33.0273 32.6552C32.8258 32.8819 32.5785 33.0633 32.3018 33.1875C32.0251 33.3117 31.7252 33.3759 31.4219 33.3759Z" fill="white"/>
<path d="M13.6025 38.3516C13.3078 38.3519 13.0162 38.2913 12.746 38.1737C12.4758 38.0561 12.2328 37.8839 12.0322 37.668C8.81958 34.2311 7.03247 29.7022 7.03247 24.9976C7.03247 20.293 8.81958 15.7641 12.0322 12.3272C12.2245 12.1194 12.456 11.9516 12.7133 11.8335C12.9706 11.7154 13.2488 11.6494 13.5318 11.6392C13.8147 11.629 14.0969 11.6748 14.3621 11.7741C14.6273 11.8733 14.8702 12.0239 15.077 12.2174C15.2837 12.4108 15.4502 12.6432 15.5669 12.9012C15.6835 13.1592 15.748 13.4377 15.7566 13.7207C15.7652 14.0037 15.7179 14.2857 15.6172 14.5503C15.5165 14.8149 15.3645 15.057 15.1699 15.2627C12.7017 17.9036 11.3288 21.3834 11.3288 24.9981C11.3288 28.6128 12.7017 32.0925 15.1699 34.7334C15.455 35.0394 15.6447 35.4219 15.7156 35.834C15.7865 36.2462 15.7356 36.6701 15.5691 37.0537C15.4025 37.4373 15.1277 37.764 14.7782 37.9937C14.4287 38.2234 14.0197 38.3461 13.6015 38.3467L13.6025 38.3516ZM36.3974 38.3516C35.9792 38.351 35.5703 38.2283 35.2208 37.9986C34.8713 37.7689 34.5964 37.4422 34.4299 37.0586C34.2634 36.675 34.2125 36.2511 34.2834 35.8389C34.3543 35.4267 34.5439 35.0442 34.8291 34.7383C37.2972 32.0974 38.6702 28.6177 38.6702 25.003C38.6702 21.3883 37.2972 17.9085 34.8291 15.2676C34.6345 15.0619 34.4825 14.8198 34.3818 14.5552C34.2811 14.2905 34.2337 14.0086 34.2423 13.7256C34.251 13.4426 34.3155 13.1641 34.4321 12.9061C34.5487 12.6481 34.7152 12.4157 34.922 12.2223C35.1287 12.0288 35.3717 11.8782 35.6369 11.7789C35.9021 11.6797 36.1842 11.6339 36.4672 11.6441C36.7502 11.6543 37.0283 11.7203 37.2856 11.8384C37.543 11.9565 37.7745 12.1242 37.9668 12.3321C41.1794 15.769 42.9665 20.2979 42.9665 25.0025C42.9665 29.7071 41.1794 34.236 37.9668 37.6729C37.7659 37.8878 37.5228 38.059 37.2528 38.1757C36.9828 38.2925 36.6916 38.3524 36.3974 38.3516Z" fill="white"/>
<path d="M41.8945 42.7735C41.4798 42.7734 41.074 42.6533 40.726 42.4276C40.378 42.2019 40.1028 41.8804 39.9336 41.5017C39.7643 41.1231 39.7083 40.7036 39.7723 40.2938C39.8362 39.884 40.0174 39.5015 40.2939 39.1924C43.778 35.286 45.7035 30.2345 45.7035 25C45.7035 19.7656 43.778 14.7141 40.2939 10.8077C39.9261 10.3814 39.7403 9.82772 39.7765 9.26583C39.8127 8.70394 40.0681 8.17872 40.4877 7.80321C40.9072 7.42769 41.4574 7.23188 42.0199 7.25792C42.5823 7.28395 43.1121 7.52975 43.4951 7.94242C47.6842 12.6367 49.9994 18.7084 49.9994 25C49.9994 31.2917 47.6842 37.3634 43.4951 42.0577C43.2937 42.2828 43.047 42.4629 42.7712 42.5863C42.4954 42.7096 42.1967 42.7734 41.8945 42.7735ZM8.10547 42.7735C7.80296 42.7741 7.50375 42.7106 7.22754 42.5872C6.95133 42.4638 6.70438 42.2833 6.50293 42.0577C2.31386 37.3634 -0.00134277 31.2917 -0.00134277 25C-0.00134277 18.7084 2.31386 12.6367 6.50293 7.94242C6.88599 7.52975 7.41575 7.28395 7.9782 7.25792C8.54066 7.23188 9.09086 7.42769 9.5104 7.80321C9.92995 8.17872 10.1853 8.70394 10.2215 9.26583C10.2578 9.82772 10.072 10.3814 9.70411 10.8077C6.22001 14.7141 4.29458 19.7656 4.29458 25C4.29458 30.2345 6.22001 35.286 9.70411 39.1924C9.98055 39.5014 10.1617 39.8837 10.2257 40.2933C10.2897 40.7029 10.2339 41.1223 10.0649 41.5008C9.89588 41.8794 9.62097 42.201 9.2733 42.4268C8.92562 42.6526 8.52004 42.773 8.10547 42.7735Z" fill="white"/>
</g>
<defs>
<clipPath id="clip0_2285_313">
<rect width="50" height="50" fill="white"/>
</clipPath>
</defs>
</svg>
