<svg width="30" height="30" viewBox="0 0 30 30" fill="none" xmlns="http://www.w3.org/2000/svg">
<path d="M20 22.5V8.75H22.5V7.5H25V8.75H27.5V22.5H20ZM6.71875 22.5C5.53125 22.5 4.53125 22.0937 3.71875 21.2812C2.90625 20.4687 2.5 19.4687 2.5 18.2812V7.5H7.5V12.5H4.375V18.2812C4.375 18.9479 4.59917 19.5054 5.0475 19.9538C5.49583 20.4021 6.05292 20.6258 6.71875 20.625C7.38458 20.6242 7.94208 20.4004 8.39125 19.9538C8.84042 19.5071 9.06417 18.9496 9.0625 18.2812V11.7188C9.0625 10.5313 9.46875 9.53125 10.2813 8.71875C11.0938 7.90625 12.0938 7.5 13.2812 7.5C14.4687 7.5 15.4687 7.90625 16.2812 8.71875C17.0937 9.53125 17.5 10.5313 17.5 11.7188V22.5H12.5V17.5H15.625V11.7188C15.625 11.0521 15.4013 10.4946 14.9538 10.0462C14.5063 9.59792 13.9487 9.37417 13.2812 9.375C12.6138 9.37583 12.0562 9.6 11.6087 10.0475C11.1612 10.495 10.9375 11.0521 10.9375 11.7188V18.2812C10.9375 19.4687 10.5313 20.4687 9.71875 21.2812C8.90625 22.0937 7.90625 22.5 6.71875 22.5ZM22.5 20H25V11.25H22.5V20Z" fill="#676767"/>
</svg>
