<svg width="50" height="50" viewBox="0 0 50 50" fill="none" xmlns="http://www.w3.org/2000/svg">
<path d="M45.8333 21.6667H43.75L41.6666 17.5H28.6458L33.3333 24.7917H29.1666L22.3958 17.5H8.33329C7.18746 17.5 4.16663 16.5625 4.16663 15.4167C4.16663 14.2708 7.29163 10.2083 11.4583 10.2083C15.625 10.2083 15.9791 12.2917 18.75 13.3333H43.75C44.3025 13.3333 44.8324 13.5528 45.2231 13.9435C45.6138 14.3342 45.8333 14.8641 45.8333 15.4167V21.6667ZM22.3958 12.2917L29.1666 5H33.3333L28.6458 12.2917H22.3958ZM37.5 21.6667V18.5417H41.1458L39.5833 21.6667H37.5ZM6.24996 38.3333C5.69743 38.3333 5.16752 38.1138 4.77682 37.7231C4.38612 37.3324 4.16663 36.8025 4.16663 36.25C4.16663 35.6975 4.38612 35.1676 4.77682 34.7769C5.16752 34.3862 5.69743 34.1667 6.24996 34.1667C8.4601 34.1667 10.5797 35.0446 12.1425 36.6074C13.7053 38.1702 14.5833 40.2899 14.5833 42.5C14.5833 43.0525 14.3638 43.5824 13.9731 43.9731C13.5824 44.3638 13.0525 44.5833 12.5 44.5833C11.9474 44.5833 11.4175 44.3638 11.0268 43.9731C10.6361 43.5824 10.4166 43.0525 10.4166 42.5C10.4166 41.3949 9.97764 40.3351 9.19624 39.5537C8.41484 38.7723 7.35503 38.3333 6.24996 38.3333ZM22.9166 42.5C22.9166 43.0525 22.6971 43.5824 22.3064 43.9731C21.9157 44.3638 21.3858 44.5833 20.8333 44.5833C20.2808 44.5833 19.7509 44.3638 19.3602 43.9731C18.9695 43.5824 18.75 43.0525 18.75 42.5C18.75 39.1848 17.433 36.0054 15.0888 33.6612C12.7446 31.317 9.56517 30 6.24996 30C5.69743 30 5.16752 29.7805 4.77682 29.3898C4.38612 28.9991 4.16663 28.4692 4.16663 27.9167C4.16663 27.3641 4.38612 26.8342 4.77682 26.4435C5.16752 26.0528 5.69743 25.8333 6.24996 25.8333C10.6702 25.8333 14.9095 27.5893 18.0351 30.7149C21.1607 33.8405 22.9166 38.0797 22.9166 42.5Z" fill="white"/>
</svg>
