<svg width="50" height="50" viewBox="0 0 50 50" fill="none" xmlns="http://www.w3.org/2000/svg">
<path d="M27.7917 16.9379C25.8542 16.9379 24.2709 15.3337 24.2709 13.3962C24.2709 12.4624 24.6418 11.5669 25.3021 10.9066C25.9624 10.2463 26.8579 9.87537 27.7917 9.87537C29.75 9.87537 31.3334 11.4587 31.3334 13.3962C31.3334 15.3337 29.75 16.9379 27.7917 16.9379ZM21.4584 41.4379L9.10421 38.9795L9.81254 35.4379L18.4584 37.2087L21.2709 22.917L18.1042 24.167V30.1254H14.5834V21.8754L23.75 17.9795L25.1459 17.8129C26.3959 17.8129 27.4375 18.5212 28.125 19.5837L29.9167 22.3962C31.3334 24.917 34.1459 26.6254 37.5 26.6254V30.1254C33.625 30.1254 30.0834 28.3962 27.7917 25.7504L26.75 31.042L30.4375 34.5629V47.8337H26.9167V37.2087L23.2084 33.6879L21.4584 41.4379ZM43.75 47.8337H39.5834V6.16703H12.5V33.4795L8.33337 32.6045V2.00037H43.75V47.8337ZM12.5 47.8337H8.33337V41.1254L12.5 42.0004V47.8337Z" fill="white"/>
</svg>
