<svg width="60" height="60" viewBox="0 0 60 60" fill="none" xmlns="http://www.w3.org/2000/svg">
<path d="M5 30C5 18.215 5 12.3225 8.66 8.66C12.325 5 18.215 5 30 5C41.785 5 47.6775 5 51.3375 8.66C55 12.325 55 18.215 55 30C55 41.785 55 47.6775 51.3375 51.3375C47.68 55 41.785 55 30 55C18.215 55 12.3225 55 8.66 51.3375C5 47.68 5 41.785 5 30Z" stroke="#F65026" stroke-width="1.5"/>
<path d="M17.5 35L23.2325 29.2675C23.7013 28.7988 24.3371 28.5355 25 28.5355C25.6629 28.5355 26.2987 28.7988 26.7675 29.2675L30.7325 33.2325C31.2013 33.7012 31.8371 33.9645 32.5 33.9645C33.1629 33.9645 33.7987 33.7012 34.2675 33.2325L42.5 25M42.5 25V31.25M42.5 25H36.25" stroke="#F65026" stroke-width="1.5" stroke-linecap="round" stroke-linejoin="round"/>
</svg>
