<svg width="50" height="50" viewBox="0 0 50 50" fill="none" xmlns="http://www.w3.org/2000/svg">
<path d="M18.75 39.4163C19.0222 39.413 19.2912 39.3564 19.5416 39.2496C19.7941 39.1441 20.0266 38.9962 20.2291 38.8121C20.3234 38.7097 20.4071 38.598 20.4791 38.4788C20.5616 38.3724 20.625 38.2526 20.6666 38.1246C20.7412 38.009 20.7974 37.8825 20.8333 37.7496C20.8435 37.6109 20.8435 37.4717 20.8333 37.333C20.83 37.0607 20.7734 36.7918 20.6666 36.5413C20.5731 36.2828 20.4238 36.048 20.2294 35.8536C20.035 35.6591 19.8002 35.5099 19.5416 35.4163C19.1645 35.2414 18.7437 35.1834 18.3333 35.2496L17.9583 35.3746C17.8303 35.4162 17.7105 35.4797 17.6041 35.5621C17.4849 35.6341 17.3733 35.7179 17.2708 35.8121C17.0811 36.0103 16.9324 36.2439 16.8333 36.4996C16.7211 36.763 16.6643 37.0467 16.6666 37.333C16.6666 37.8855 16.8861 38.4154 17.2768 38.8061C17.6675 39.1968 18.1974 39.4163 18.75 39.4163ZM11.0208 38.8121C11.2233 38.9962 11.4558 39.1441 11.7083 39.2496C11.9588 39.3564 12.2277 39.413 12.5 39.4163H12.8958C13.0338 39.397 13.1676 39.3547 13.2916 39.2913C13.4244 39.2457 13.5505 39.1827 13.6666 39.1038L13.9791 38.8538C14.1631 38.6513 14.3111 38.4188 14.4166 38.1663C14.5398 37.9064 14.5971 37.6202 14.5833 37.333C14.5935 37.1943 14.5935 37.055 14.5833 36.9163C14.5605 36.7858 14.5184 36.6594 14.4583 36.5413C14.4167 36.4133 14.3533 36.2935 14.2708 36.1871C14.1988 36.068 14.1151 35.9563 14.0208 35.8538C13.7278 35.5647 13.3558 35.3689 12.9517 35.291C12.5475 35.2132 12.1294 35.2568 11.75 35.4163C11.4942 35.5155 11.2606 35.6641 11.0625 35.8538C10.9682 35.9563 10.8844 36.068 10.8125 36.1871C10.73 36.2935 10.6666 36.4133 10.625 36.5413C10.5357 36.6542 10.4654 36.7809 10.4166 36.9163C10.4064 37.055 10.4064 37.1943 10.4166 37.333C10.4199 37.6052 10.4765 37.8742 10.5833 38.1246C10.6888 38.3771 10.8368 38.6096 11.0208 38.8121ZM39.5833 3.99963H10.4166C8.75902 3.99963 7.16931 4.65811 5.99721 5.83022C4.82511 7.00232 4.16663 8.59203 4.16663 10.2496V39.4163C4.16663 41.0739 4.82511 42.6636 5.99721 43.8357C7.16931 45.0078 8.75902 45.6663 10.4166 45.6663H39.5833C41.2409 45.6663 42.8306 45.0078 44.0027 43.8357C45.1748 42.6636 45.8333 41.0739 45.8333 39.4163V10.2496C45.8333 8.59203 45.1748 7.00232 44.0027 5.83022C42.8306 4.65811 41.2409 3.99963 39.5833 3.99963ZM41.6666 39.4163C41.6666 39.9688 41.4471 40.4987 41.0564 40.8894C40.6657 41.2801 40.1358 41.4996 39.5833 41.4996H10.4166C9.86409 41.4996 9.33419 41.2801 8.94349 40.8894C8.55279 40.4987 8.33329 39.9688 8.33329 39.4163V33.1663H41.6666V39.4163ZM41.6666 28.9996H8.33329V20.6663H16.6666C16.9408 20.6679 17.2126 20.6153 17.4664 20.5117C17.7203 20.408 17.9511 20.2552 18.1458 20.0621L20.8333 17.458L26.6666 24.1246C26.8548 24.3391 27.0851 24.5127 27.3431 24.6345C27.6011 24.7564 27.8814 24.8239 28.1666 24.833C28.4408 24.8346 28.7126 24.782 28.9664 24.6783C29.2203 24.5746 29.4511 24.4219 29.6458 24.2288L33.1458 20.6663H41.6666V28.9996ZM41.6666 16.4996H32.2916C32.0174 16.498 31.7457 16.5506 31.4918 16.6543C31.238 16.758 31.0071 16.9107 30.8125 17.1038L28.2291 19.708L22.3958 13.0413C22.2009 12.8332 21.9654 12.6672 21.7038 12.5538C21.4422 12.4403 21.1601 12.3818 20.875 12.3818C20.5898 12.3818 20.3077 12.4403 20.0461 12.5538C19.7845 12.6672 19.549 12.8332 19.3541 13.0413L15.8125 16.4996H8.33329V10.2496C8.33329 9.6971 8.55279 9.1672 8.94349 8.7765C9.33419 8.38579 9.86409 8.1663 10.4166 8.1663H39.5833C40.1358 8.1663 40.6657 8.38579 41.0564 8.7765C41.4471 9.1672 41.6666 9.6971 41.6666 10.2496V16.4996Z" fill="white"/>
</svg>
