<svg width="35" height="24" viewBox="0 0 35 24" fill="none" xmlns="http://www.w3.org/2000/svg">
<path d="M24.0392 12.4649L33.0094 4.67159V20.1693L24.0392 12.4649ZM12.4804 13.7847L15.6304 16.5191C16.1248 16.9391 16.7694 17.1928 17.4738 17.1928H17.4985H17.5175C18.2233 17.1928 18.8679 16.9376 19.3681 16.5147L19.3638 16.5176L22.5138 13.7833L32.0892 22.0068H2.90938L12.4804 13.7847ZM2.89625 2.82388H32.1067L18.076 15.0097C17.9183 15.1345 17.723 15.2023 17.5219 15.2022H17.5015H17.4825C17.2807 15.2025 17.0847 15.1341 16.9269 15.0083L16.9283 15.0097L2.89625 2.82388ZM1.99063 4.67013L10.9594 12.4635L1.99063 20.1635V4.67013ZM33.4906 1.11034C33.1406 0.935335 32.7294 0.833252 32.2933 0.833252H2.71104C2.28836 0.833353 1.87149 0.931705 1.49333 1.12054L1.50937 1.11325C1.05667 1.33654 0.675424 1.68197 0.408704 2.11053C0.141984 2.53908 0.00041905 3.03368 0 3.53846L0 21.2893C0.000772047 22.0077 0.286493 22.6964 0.794471 23.2044C1.30245 23.7124 1.99119 23.9981 2.70958 23.9989H32.289C33.0074 23.9981 33.6961 23.7124 34.2041 23.2044C34.7121 22.6964 34.9978 22.0077 34.9985 21.2893V3.53846C34.9985 2.47825 34.3875 1.5595 33.4979 1.11763L33.4819 1.11034H33.4906Z" fill="white"/>
</svg>
